solid ASCII
  facet normal -0.000000e+00 1.000000e+00 0.000000e+00
    outer loop
      vertex   2.171337e+01 1.000000e+01 1.255997e+00
      vertex   3.590082e+01 1.000000e+01 2.360212e+00
      vertex   2.193010e+01 1.000000e+01 -4.280097e-02
    endloop
  endfacet
  facet normal 0.000000e+00 1.000000e+00 0.000000e+00
    outer loop
      vertex   2.193010e+01 1.000000e+01 -4.280097e-02
      vertex   3.590082e+01 1.000000e+01 2.360212e+00
      vertex   3.590082e+01 1.000000e+01 1.452727e+00
    endloop
  endfacet
  facet normal -0.000000e+00 1.000000e+00 0.000000e+00
    outer loop
      vertex   2.193010e+01 1.000000e+01 -4.280097e-02
      vertex   3.590082e+01 1.000000e+01 1.452727e+00
      vertex   2.171337e+01 1.000000e+01 -1.341599e+00
    endloop
  endfacet
  facet normal -0.000000e+00 1.000000e+00 0.000000e+00
    outer loop
      vertex   2.171337e+01 1.000000e+01 -1.341599e+00
      vertex   3.590082e+01 1.000000e+01 1.452727e+00
      vertex   1.917816e+01 1.000000e+01 -1.219787e+01
    endloop
  endfacet
  facet normal 0.000000e+00 1.000000e+00 0.000000e+00
    outer loop
      vertex   2.171337e+01 1.000000e+01 -1.341599e+00
      vertex   1.917816e+01 1.000000e+01 -1.219787e+01
      vertex   2.108666e+01 1.000000e+01 -2.499652e+00
    endloop
  endfacet
  facet normal 0.000000e+00 1.000000e+00 0.000000e+00
    outer loop
      vertex   2.108666e+01 1.000000e+01 -2.499652e+00
      vertex   1.917816e+01 1.000000e+01 -1.219787e+01
      vertex   2.011789e+01 1.000000e+01 -3.391467e+00
    endloop
  endfacet
  facet normal 0.000000e+00 1.000000e+00 0.000000e+00
    outer loop
      vertex   2.011789e+01 1.000000e+01 -3.391467e+00
      vertex   1.917816e+01 1.000000e+01 -1.219787e+01
      vertex   1.891204e+01 1.000000e+01 -3.920402e+00
    endloop
  endfacet
  facet normal 0.000000e+00 1.000000e+00 0.000000e+00
    outer loop
      vertex   1.891204e+01 1.000000e+01 -3.920402e+00
      vertex   1.917816e+01 1.000000e+01 -1.219787e+01
      vertex   1.759978e+01 1.000000e+01 -4.029139e+00
    endloop
  endfacet
  facet normal 0.000000e+00 1.000000e+00 0.000000e+00
    outer loop
      vertex   1.759978e+01 1.000000e+01 -4.029139e+00
      vertex   1.917816e+01 1.000000e+01 -1.219787e+01
      vertex   1.632332e+01 1.000000e+01 -3.705894e+00
    endloop
  endfacet
  facet normal 0.000000e+00 1.000000e+00 0.000000e+00
    outer loop
      vertex   1.632332e+01 1.000000e+01 -3.705894e+00
      vertex   1.917816e+01 1.000000e+01 -1.219787e+01
      vertex   1.522097e+01 1.000000e+01 -2.985697e+00
    endloop
  endfacet
  facet normal 0.000000e+00 1.000000e+00 0.000000e+00
    outer loop
      vertex   1.522097e+01 1.000000e+01 -2.985697e+00
      vertex   1.917816e+01 1.000000e+01 -1.219787e+01
      vertex   9.030852e+00 1.000000e+01 -5.143589e+00
    endloop
  endfacet
  facet normal 0.000000e+00 1.000000e+00 0.000000e+00
    outer loop
      vertex   1.522097e+01 1.000000e+01 -2.985697e+00
      vertex   9.030852e+00 1.000000e+01 -5.143589e+00
      vertex   1.441220e+01 1.000000e+01 -1.946591e+00
    endloop
  endfacet
  facet normal 0.000000e+00 1.000000e+00 0.000000e+00
    outer loop
      vertex   1.441220e+01 1.000000e+01 -1.946591e+00
      vertex   9.030852e+00 1.000000e+01 -5.143589e+00
      vertex   1.398465e+01 1.000000e+01 -7.011793e-01
    endloop
  endfacet
  facet normal 0.000000e+00 1.000000e+00 -0.000000e+00
    outer loop
      vertex   1.398465e+01 1.000000e+01 -7.011793e-01
      vertex   9.030852e+00 1.000000e+01 -5.143589e+00
      vertex   1.398465e+01 1.000000e+01 6.155774e-01
    endloop
  endfacet
  facet normal 0.000000e+00 1.000000e+00 0.000000e+00
    outer loop
      vertex   1.398465e+01 1.000000e+01 6.155774e-01
      vertex   9.030852e+00 1.000000e+01 -5.143589e+00
      vertex   9.030852e+00 1.000000e+01 9.073501e+00
    endloop
  endfacet
  facet normal 0.000000e+00 1.000000e+00 -0.000000e+00
    outer loop
      vertex   1.398465e+01 1.000000e+01 6.155774e-01
      vertex   9.030852e+00 1.000000e+01 9.073501e+00
      vertex   1.441220e+01 1.000000e+01 1.860989e+00
    endloop
  endfacet
  facet normal 0.000000e+00 1.000000e+00 -0.000000e+00
    outer loop
      vertex   1.441220e+01 1.000000e+01 1.860989e+00
      vertex   9.030852e+00 1.000000e+01 9.073501e+00
      vertex   1.522097e+01 1.000000e+01 2.900095e+00
    endloop
  endfacet
  facet normal 0.000000e+00 1.000000e+00 -0.000000e+00
    outer loop
      vertex   1.522097e+01 1.000000e+01 2.900095e+00
      vertex   9.030852e+00 1.000000e+01 9.073501e+00
      vertex   1.917816e+01 1.000000e+01 8.851358e+00
    endloop
  endfacet
  facet normal 0.000000e+00 1.000000e+00 0.000000e+00
    outer loop
      vertex   1.522097e+01 1.000000e+01 2.900095e+00
      vertex   1.917816e+01 1.000000e+01 8.851358e+00
      vertex   1.632332e+01 1.000000e+01 3.620292e+00
    endloop
  endfacet
  facet normal 0.000000e+00 1.000000e+00 0.000000e+00
    outer loop
      vertex   1.632332e+01 1.000000e+01 3.620292e+00
      vertex   1.917816e+01 1.000000e+01 8.851358e+00
      vertex   1.759978e+01 1.000000e+01 3.943537e+00
    endloop
  endfacet
  facet normal -0.000000e+00 1.000000e+00 0.000000e+00
    outer loop
      vertex   1.759978e+01 1.000000e+01 3.943537e+00
      vertex   1.917816e+01 1.000000e+01 8.851358e+00
      vertex   1.891204e+01 1.000000e+01 3.834800e+00
    endloop
  endfacet
  facet normal -0.000000e+00 1.000000e+00 0.000000e+00
    outer loop
      vertex   1.891204e+01 1.000000e+01 3.834800e+00
      vertex   1.917816e+01 1.000000e+01 8.851358e+00
      vertex   2.011789e+01 1.000000e+01 3.305865e+00
    endloop
  endfacet
  facet normal -0.000000e+00 1.000000e+00 -0.000000e+00
    outer loop
      vertex   2.011789e+01 1.000000e+01 3.305865e+00
      vertex   1.917816e+01 1.000000e+01 8.851358e+00
      vertex   2.108666e+01 1.000000e+01 2.414050e+00
    endloop
  endfacet
  facet normal -0.000000e+00 1.000000e+00 -0.000000e+00
    outer loop
      vertex   2.108666e+01 1.000000e+01 2.414050e+00
      vertex   1.917816e+01 1.000000e+01 8.851358e+00
      vertex   2.171337e+01 1.000000e+01 1.255997e+00
    endloop
  endfacet
  facet normal 0.000000e+00 1.000000e+00 -0.000000e+00
    outer loop
      vertex   2.171337e+01 1.000000e+01 1.255997e+00
      vertex   1.917816e+01 1.000000e+01 8.851358e+00
      vertex   3.590082e+01 1.000000e+01 2.360212e+00
    endloop
  endfacet
  facet normal -0.000000e+00 1.000000e+00 0.000000e+00
    outer loop
      vertex   3.942055e+01 1.000000e+01 2.787584e+00
      vertex   5.639168e+01 1.000000e+01 8.851358e+00
      vertex   3.963772e+01 1.000000e+01 1.906469e+00
    endloop
  endfacet
  facet normal -0.000000e+00 1.000000e+00 0.000000e+00
    outer loop
      vertex   3.963772e+01 1.000000e+01 1.906469e+00
      vertex   5.639168e+01 1.000000e+01 8.851358e+00
      vertex   5.639168e+01 1.000000e+01 -1.229776e+01
    endloop
  endfacet
  facet normal 0.000000e+00 1.000000e+00 0.000000e+00
    outer loop
      vertex   3.963772e+01 1.000000e+01 1.906469e+00
      vertex   5.639168e+01 1.000000e+01 -1.229776e+01
      vertex   3.942055e+01 1.000000e+01 1.025354e+00
    endloop
  endfacet
  facet normal 0.000000e+00 1.000000e+00 0.000000e+00
    outer loop
      vertex   3.942055e+01 1.000000e+01 1.025354e+00
      vertex   5.639168e+01 1.000000e+01 -1.229776e+01
      vertex   3.881877e+01 1.000000e+01 3.460916e-01
    endloop
  endfacet
  facet normal 0.000000e+00 1.000000e+00 0.000000e+00
    outer loop
      vertex   3.881877e+01 1.000000e+01 3.460916e-01
      vertex   5.639168e+01 1.000000e+01 -1.229776e+01
      vertex   3.890511e+01 1.000000e+01 -1.280984e+02
    endloop
  endfacet
  facet normal 0.000000e+00 1.000000e+00 0.000000e+00
    outer loop
      vertex   3.881877e+01 1.000000e+01 3.460916e-01
      vertex   3.890511e+01 1.000000e+01 -1.280984e+02
      vertex   3.797026e+01 1.000000e+01 2.429290e-02
    endloop
  endfacet
  facet normal 0.000000e+00 1.000000e+00 0.000000e+00
    outer loop
      vertex   3.797026e+01 1.000000e+01 2.429290e-02
      vertex   3.890511e+01 1.000000e+01 -1.280984e+02
      vertex   3.683338e+01 1.000000e+01 -1.280984e+02
    endloop
  endfacet
  facet normal 0.000000e+00 1.000000e+00 0.000000e+00
    outer loop
      vertex   3.797026e+01 1.000000e+01 2.429290e-02
      vertex   3.683338e+01 1.000000e+01 -1.280984e+02
      vertex   3.706939e+01 1.000000e+01 1.336781e-01
    endloop
  endfacet
  facet normal 0.000000e+00 1.000000e+00 0.000000e+00
    outer loop
      vertex   3.706939e+01 1.000000e+01 1.336781e-01
      vertex   3.683338e+01 1.000000e+01 -1.280984e+02
      vertex   1.917816e+01 1.000000e+01 -1.219787e+01
    endloop
  endfacet
  facet normal 0.000000e+00 1.000000e+00 0.000000e+00
    outer loop
      vertex   3.706939e+01 1.000000e+01 1.336781e-01
      vertex   1.917816e+01 1.000000e+01 -1.219787e+01
      vertex   3.632254e+01 1.000000e+01 6.491885e-01
    endloop
  endfacet
  facet normal 0.000000e+00 1.000000e+00 0.000000e+00
    outer loop
      vertex   3.632254e+01 1.000000e+01 6.491885e-01
      vertex   1.917816e+01 1.000000e+01 -1.219787e+01
      vertex   3.590082e+01 1.000000e+01 1.452727e+00
    endloop
  endfacet
  facet normal 0.000000e+00 1.000000e+00 -0.000000e+00
    outer loop
      vertex   3.942055e+01 1.000000e+01 2.787584e+00
      vertex   3.881877e+01 1.000000e+01 3.466847e+00
      vertex   5.639168e+01 1.000000e+01 8.851358e+00
    endloop
  endfacet
  facet normal 0.000000e+00 1.000000e+00 0.000000e+00
    outer loop
      vertex   5.639168e+01 1.000000e+01 8.851358e+00
      vertex   3.881877e+01 1.000000e+01 3.466847e+00
      vertex   3.797026e+01 1.000000e+01 3.788646e+00
    endloop
  endfacet
  facet normal 0.000000e+00 1.000000e+00 0.000000e+00
    outer loop
      vertex   5.639168e+01 1.000000e+01 8.851358e+00
      vertex   3.797026e+01 1.000000e+01 3.788646e+00
      vertex   1.917816e+01 1.000000e+01 8.851358e+00
    endloop
  endfacet
  facet normal 0.000000e+00 1.000000e+00 0.000000e+00
    outer loop
      vertex   1.917816e+01 1.000000e+01 8.851358e+00
      vertex   3.797026e+01 1.000000e+01 3.788646e+00
      vertex   3.706939e+01 1.000000e+01 3.679260e+00
    endloop
  endfacet
  facet normal 0.000000e+00 1.000000e+00 0.000000e+00
    outer loop
      vertex   1.917816e+01 1.000000e+01 8.851358e+00
      vertex   3.706939e+01 1.000000e+01 3.679260e+00
      vertex   3.632254e+01 1.000000e+01 3.163750e+00
    endloop
  endfacet
  facet normal 0.000000e+00 1.000000e+00 0.000000e+00
    outer loop
      vertex   3.632254e+01 1.000000e+01 3.163750e+00
      vertex   3.590082e+01 1.000000e+01 2.360212e+00
      vertex   1.917816e+01 1.000000e+01 8.851358e+00
    endloop
  endfacet
  facet normal -9.709418e-01 1.062775e-17 2.393157e-01
    outer loop
      vertex   3.942055e+01 1.000000e+01 1.025354e+00
      vertex   3.942055e+01 -1.000000e+01 1.025354e+00
      vertex   3.963772e+01 1.000000e+01 1.906469e+00
    endloop
  endfacet
  facet normal -9.709418e-01 0.000000e+00 2.393157e-01
    outer loop
      vertex   3.963772e+01 1.000000e+01 1.906469e+00
      vertex   3.942055e+01 -1.000000e+01 1.025354e+00
      vertex   3.963772e+01 -1.000000e+01 1.906469e+00
    endloop
  endfacet
  facet normal -9.709418e-01 -0.000000e+00 -2.393157e-01
    outer loop
      vertex   3.963772e+01 1.000000e+01 1.906469e+00
      vertex   3.963772e+01 -1.000000e+01 1.906469e+00
      vertex   3.942055e+01 1.000000e+01 2.787584e+00
    endloop
  endfacet
  facet normal -9.709418e-01 -1.062775e-17 -2.393157e-01
    outer loop
      vertex   3.942055e+01 1.000000e+01 2.787584e+00
      vertex   3.963772e+01 -1.000000e+01 1.906469e+00
      vertex   3.942055e+01 -1.000000e+01 2.787584e+00
    endloop
  endfacet
  facet normal -7.485107e-01 -2.944856e-17 -6.631227e-01
    outer loop
      vertex   3.942055e+01 1.000000e+01 2.787584e+00
      vertex   3.942055e+01 -1.000000e+01 2.787584e+00
      vertex   3.881877e+01 1.000000e+01 3.466847e+00
    endloop
  endfacet
  facet normal -7.485107e-01 -0.000000e+00 -6.631227e-01
    outer loop
      vertex   3.881877e+01 1.000000e+01 3.466847e+00
      vertex   3.942055e+01 -1.000000e+01 2.787584e+00
      vertex   3.881877e+01 -1.000000e+01 3.466847e+00
    endloop
  endfacet
  facet normal -3.546049e-01 -0.000000e+00 -9.350162e-01
    outer loop
      vertex   3.881877e+01 1.000000e+01 3.466847e+00
      vertex   3.881877e+01 -1.000000e+01 3.466847e+00
      vertex   3.797026e+01 1.000000e+01 3.788646e+00
    endloop
  endfacet
  facet normal -3.546049e-01 -0.000000e+00 -9.350162e-01
    outer loop
      vertex   3.797026e+01 1.000000e+01 3.788646e+00
      vertex   3.881877e+01 -1.000000e+01 3.466847e+00
      vertex   3.797026e+01 -1.000000e+01 3.788646e+00
    endloop
  endfacet
  facet normal 1.205367e-01 0.000000e+00 -9.927089e-01
    outer loop
      vertex   3.797026e+01 1.000000e+01 3.788646e+00
      vertex   3.797026e+01 -1.000000e+01 3.788646e+00
      vertex   3.706939e+01 1.000000e+01 3.679260e+00
    endloop
  endfacet
  facet normal 1.205367e-01 2.204256e-17 -9.927089e-01
    outer loop
      vertex   3.706939e+01 1.000000e+01 3.679260e+00
      vertex   3.797026e+01 -1.000000e+01 3.788646e+00
      vertex   3.706939e+01 -1.000000e+01 3.679260e+00
    endloop
  endfacet
  facet normal 5.680647e-01 1.827391e-17 -8.229839e-01
    outer loop
      vertex   3.706939e+01 1.000000e+01 3.679260e+00
      vertex   3.706939e+01 -1.000000e+01 3.679260e+00
      vertex   3.632254e+01 1.000000e+01 3.163750e+00
    endloop
  endfacet
  facet normal 5.680647e-01 3.654783e-17 -8.229839e-01
    outer loop
      vertex   3.632254e+01 1.000000e+01 3.163750e+00
      vertex   3.706939e+01 -1.000000e+01 3.679260e+00
      vertex   3.632254e+01 -1.000000e+01 3.163750e+00
    endloop
  endfacet
  facet normal 8.854560e-01 2.063785e-17 -4.647232e-01
    outer loop
      vertex   3.632254e+01 1.000000e+01 3.163750e+00
      vertex   3.632254e+01 -1.000000e+01 3.163750e+00
      vertex   3.590082e+01 1.000000e+01 2.360212e+00
    endloop
  endfacet
  facet normal 8.854560e-01 -2.939393e-16 -4.647232e-01
    outer loop
      vertex   3.590082e+01 1.000000e+01 2.360212e+00
      vertex   3.632254e+01 -1.000000e+01 3.163750e+00
      vertex   3.590082e+01 -1.000000e+01 2.360212e+00
    endloop
  endfacet
  facet normal 1.000000e+00 -3.552714e-16 -7.829800e-15
    outer loop
      vertex   3.590082e+01 1.000000e+01 2.360212e+00
      vertex   3.590082e+01 -1.000000e+01 2.360212e+00
      vertex   3.590082e+01 1.000000e+01 1.452727e+00
    endloop
  endfacet
  facet normal 1.000000e+00 3.552714e-16 7.829800e-15
    outer loop
      vertex   3.590082e+01 1.000000e+01 1.452727e+00
      vertex   3.590082e+01 -1.000000e+01 2.360212e+00
      vertex   3.590082e+01 -1.000000e+01 1.452727e+00
    endloop
  endfacet
  facet normal 8.854560e-01 2.939393e-16 4.647232e-01
    outer loop
      vertex   3.590082e+01 1.000000e+01 1.452727e+00
      vertex   3.590082e+01 -1.000000e+01 1.452727e+00
      vertex   3.632254e+01 1.000000e+01 6.491885e-01
    endloop
  endfacet
  facet normal 8.854560e-01 -1.547839e-17 4.647232e-01
    outer loop
      vertex   3.632254e+01 1.000000e+01 6.491885e-01
      vertex   3.590082e+01 -1.000000e+01 1.452727e+00
      vertex   3.632254e+01 -1.000000e+01 6.491885e-01
    endloop
  endfacet
  facet normal 5.680647e-01 -2.741087e-17 8.229839e-01
    outer loop
      vertex   3.632254e+01 1.000000e+01 6.491885e-01
      vertex   3.632254e+01 -1.000000e+01 6.491885e-01
      vertex   3.706939e+01 1.000000e+01 1.336781e-01
    endloop
  endfacet
  facet normal 5.680647e-01 -1.142120e-17 8.229839e-01
    outer loop
      vertex   3.706939e+01 1.000000e+01 1.336781e-01
      vertex   3.632254e+01 -1.000000e+01 6.491885e-01
      vertex   3.706939e+01 -1.000000e+01 1.336781e-01
    endloop
  endfacet
  facet normal 1.205367e-01 -1.377660e-17 9.927089e-01
    outer loop
      vertex   3.706939e+01 1.000000e+01 1.336781e-01
      vertex   3.706939e+01 -1.000000e+01 1.336781e-01
      vertex   3.797026e+01 1.000000e+01 2.429290e-02
    endloop
  endfacet
  facet normal 1.205367e-01 1.377660e-17 9.927089e-01
    outer loop
      vertex   3.797026e+01 1.000000e+01 2.429290e-02
      vertex   3.706939e+01 -1.000000e+01 1.336781e-01
      vertex   3.797026e+01 -1.000000e+01 2.429290e-02
    endloop
  endfacet
  facet normal -3.546049e-01 1.297596e-17 9.350162e-01
    outer loop
      vertex   3.797026e+01 1.000000e+01 2.429290e-02
      vertex   3.797026e+01 -1.000000e+01 2.429290e-02
      vertex   3.881877e+01 1.000000e+01 3.460916e-01
    endloop
  endfacet
  facet normal -3.546049e-01 0.000000e+00 9.350162e-01
    outer loop
      vertex   3.881877e+01 1.000000e+01 3.460916e-01
      vertex   3.797026e+01 -1.000000e+01 2.429290e-02
      vertex   3.881877e+01 -1.000000e+01 3.460916e-01
    endloop
  endfacet
  facet normal -7.485107e-01 0.000000e+00 6.631227e-01
    outer loop
      vertex   3.881877e+01 1.000000e+01 3.460916e-01
      vertex   3.881877e+01 -1.000000e+01 3.460916e-01
      vertex   3.942055e+01 1.000000e+01 1.025354e+00
    endloop
  endfacet
  facet normal -7.485107e-01 2.944856e-17 6.631227e-01
    outer loop
      vertex   3.942055e+01 1.000000e+01 1.025354e+00
      vertex   3.881877e+01 -1.000000e+01 3.460916e-01
      vertex   3.942055e+01 -1.000000e+01 1.025354e+00
    endloop
  endfacet
  facet normal -9.863613e-01 0.000000e+00 1.645946e-01
    outer loop
      vertex   2.171337e+01 1.000000e+01 -1.341599e+00
      vertex   2.171337e+01 -1.000000e+01 -1.341599e+00
      vertex   2.193010e+01 1.000000e+01 -4.280097e-02
    endloop
  endfacet
  facet normal -9.863613e-01 0.000000e+00 1.645946e-01
    outer loop
      vertex   2.193010e+01 1.000000e+01 -4.280097e-02
      vertex   2.171337e+01 -1.000000e+01 -1.341599e+00
      vertex   2.193010e+01 -1.000000e+01 -4.280097e-02
    endloop
  endfacet
  facet normal -9.863613e-01 -0.000000e+00 -1.645946e-01
    outer loop
      vertex   2.193010e+01 1.000000e+01 -4.280097e-02
      vertex   2.193010e+01 -1.000000e+01 -4.280097e-02
      vertex   2.171337e+01 1.000000e+01 1.255997e+00
    endloop
  endfacet
  facet normal -9.863613e-01 -0.000000e+00 -1.645946e-01
    outer loop
      vertex   2.171337e+01 1.000000e+01 1.255997e+00
      vertex   2.193010e+01 -1.000000e+01 -4.280097e-02
      vertex   2.171337e+01 -1.000000e+01 1.255997e+00
    endloop
  endfacet
  facet normal -8.794738e-01 -0.000000e+00 -4.759474e-01
    outer loop
      vertex   2.171337e+01 1.000000e+01 1.255997e+00
      vertex   2.171337e+01 -1.000000e+01 1.255997e+00
      vertex   2.108666e+01 1.000000e+01 2.414050e+00
    endloop
  endfacet
  facet normal -8.794738e-01 -0.000000e+00 -4.759474e-01
    outer loop
      vertex   2.108666e+01 1.000000e+01 2.414050e+00
      vertex   2.171337e+01 -1.000000e+01 1.255997e+00
      vertex   2.108666e+01 -1.000000e+01 2.414050e+00
    endloop
  endfacet
  facet normal -6.772816e-01 -0.000000e+00 -7.357239e-01
    outer loop
      vertex   2.108666e+01 1.000000e+01 2.414050e+00
      vertex   2.108666e+01 -1.000000e+01 2.414050e+00
      vertex   2.011789e+01 1.000000e+01 3.305865e+00
    endloop
  endfacet
  facet normal -6.772816e-01 -0.000000e+00 -7.357239e-01
    outer loop
      vertex   2.011789e+01 1.000000e+01 3.305865e+00
      vertex   2.108666e+01 -1.000000e+01 2.414050e+00
      vertex   2.011789e+01 -1.000000e+01 3.305865e+00
    endloop
  endfacet
  facet normal -4.016954e-01 -0.000000e+00 -9.157733e-01
    outer loop
      vertex   2.011789e+01 1.000000e+01 3.305865e+00
      vertex   2.011789e+01 -1.000000e+01 3.305865e+00
      vertex   1.891204e+01 1.000000e+01 3.834800e+00
    endloop
  endfacet
  facet normal -4.016954e-01 -2.033425e-17 -9.157733e-01
    outer loop
      vertex   1.891204e+01 1.000000e+01 3.834800e+00
      vertex   2.011789e+01 -1.000000e+01 3.305865e+00
      vertex   1.891204e+01 -1.000000e+01 3.834800e+00
    endloop
  endfacet
  facet normal -8.257935e-02 -2.212862e-17 -9.965845e-01
    outer loop
      vertex   1.891204e+01 1.000000e+01 3.834800e+00
      vertex   1.891204e+01 -1.000000e+01 3.834800e+00
      vertex   1.759978e+01 1.000000e+01 3.943537e+00
    endloop
  endfacet
  facet normal -8.257935e-02 -0.000000e+00 -9.965845e-01
    outer loop
      vertex   1.759978e+01 1.000000e+01 3.943537e+00
      vertex   1.891204e+01 -1.000000e+01 3.834800e+00
      vertex   1.759978e+01 -1.000000e+01 3.943537e+00
    endloop
  endfacet
  facet normal 2.454855e-01 0.000000e+00 -9.694003e-01
    outer loop
      vertex   1.759978e+01 1.000000e+01 3.943537e+00
      vertex   1.759978e+01 -1.000000e+01 3.943537e+00
      vertex   1.632332e+01 1.000000e+01 3.620292e+00
    endloop
  endfacet
  facet normal 2.454855e-01 -5.569626e-19 -9.694003e-01
    outer loop
      vertex   1.632332e+01 1.000000e+01 3.620292e+00
      vertex   1.759978e+01 -1.000000e+01 3.943537e+00
      vertex   1.632332e+01 -1.000000e+01 3.620292e+00
    endloop
  endfacet
  facet normal 5.469482e-01 -5.997985e-17 -8.371665e-01
    outer loop
      vertex   1.632332e+01 1.000000e+01 3.620292e+00
      vertex   1.632332e+01 -1.000000e+01 3.620292e+00
      vertex   1.522097e+01 1.000000e+01 2.900095e+00
    endloop
  endfacet
  facet normal 5.469482e-01 2.577656e-17 -8.371665e-01
    outer loop
      vertex   1.522097e+01 1.000000e+01 2.900095e+00
      vertex   1.632332e+01 -1.000000e+01 3.620292e+00
      vertex   1.522097e+01 -1.000000e+01 2.900095e+00
    endloop
  endfacet
  facet normal 7.891405e-01 -1.553671e-17 -6.142127e-01
    outer loop
      vertex   1.522097e+01 1.000000e+01 2.900095e+00
      vertex   1.522097e+01 -1.000000e+01 2.900095e+00
      vertex   1.441220e+01 1.000000e+01 1.860989e+00
    endloop
  endfacet
  facet normal 7.891405e-01 0.000000e+00 -6.142127e-01
    outer loop
      vertex   1.441220e+01 1.000000e+01 1.860989e+00
      vertex   1.522097e+01 -1.000000e+01 2.900095e+00
      vertex   1.441220e+01 -1.000000e+01 1.860989e+00
    endloop
  endfacet
  facet normal 9.458172e-01 0.000000e+00 -3.246995e-01
    outer loop
      vertex   1.441220e+01 1.000000e+01 1.860989e+00
      vertex   1.441220e+01 -1.000000e+01 1.860989e+00
      vertex   1.398465e+01 1.000000e+01 6.155774e-01
    endloop
  endfacet
  facet normal 9.458172e-01 0.000000e+00 -3.246995e-01
    outer loop
      vertex   1.398465e+01 1.000000e+01 6.155774e-01
      vertex   1.441220e+01 -1.000000e+01 1.860989e+00
      vertex   1.398465e+01 -1.000000e+01 6.155774e-01
    endloop
  endfacet
  facet normal 1.000000e+00 0.000000e+00 0.000000e+00
    outer loop
      vertex   1.398465e+01 1.000000e+01 6.155774e-01
      vertex   1.398465e+01 -1.000000e+01 6.155774e-01
      vertex   1.398465e+01 1.000000e+01 -7.011793e-01
    endloop
  endfacet
  facet normal 1.000000e+00 0.000000e+00 0.000000e+00
    outer loop
      vertex   1.398465e+01 1.000000e+01 -7.011793e-01
      vertex   1.398465e+01 -1.000000e+01 6.155774e-01
      vertex   1.398465e+01 -1.000000e+01 -7.011793e-01
    endloop
  endfacet
  facet normal 9.458172e-01 0.000000e+00 3.246995e-01
    outer loop
      vertex   1.398465e+01 1.000000e+01 -7.011793e-01
      vertex   1.398465e+01 -1.000000e+01 -7.011793e-01
      vertex   1.441220e+01 1.000000e+01 -1.946591e+00
    endloop
  endfacet
  facet normal 9.458172e-01 0.000000e+00 3.246995e-01
    outer loop
      vertex   1.441220e+01 1.000000e+01 -1.946591e+00
      vertex   1.398465e+01 -1.000000e+01 -7.011793e-01
      vertex   1.441220e+01 -1.000000e+01 -1.946591e+00
    endloop
  endfacet
  facet normal 7.891405e-01 0.000000e+00 6.142127e-01
    outer loop
      vertex   1.441220e+01 1.000000e+01 -1.946591e+00
      vertex   1.441220e+01 -1.000000e+01 -1.946591e+00
      vertex   1.522097e+01 1.000000e+01 -2.985697e+00
    endloop
  endfacet
  facet normal 7.891405e-01 1.553671e-17 6.142127e-01
    outer loop
      vertex   1.522097e+01 1.000000e+01 -2.985697e+00
      vertex   1.441220e+01 -1.000000e+01 -1.946591e+00
      vertex   1.522097e+01 -1.000000e+01 -2.985697e+00
    endloop
  endfacet
  facet normal 5.469482e-01 -2.577656e-17 8.371665e-01
    outer loop
      vertex   1.522097e+01 1.000000e+01 -2.985697e+00
      vertex   1.522097e+01 -1.000000e+01 -2.985697e+00
      vertex   1.632332e+01 1.000000e+01 -3.705894e+00
    endloop
  endfacet
  facet normal 5.469482e-01 5.997985e-17 8.371665e-01
    outer loop
      vertex   1.632332e+01 1.000000e+01 -3.705894e+00
      vertex   1.522097e+01 -1.000000e+01 -2.985697e+00
      vertex   1.632332e+01 -1.000000e+01 -3.705894e+00
    endloop
  endfacet
  facet normal 2.454855e-01 5.569626e-19 9.694003e-01
    outer loop
      vertex   1.632332e+01 1.000000e+01 -3.705894e+00
      vertex   1.632332e+01 -1.000000e+01 -3.705894e+00
      vertex   1.759978e+01 1.000000e+01 -4.029139e+00
    endloop
  endfacet
  facet normal 2.454855e-01 0.000000e+00 9.694003e-01
    outer loop
      vertex   1.759978e+01 1.000000e+01 -4.029139e+00
      vertex   1.632332e+01 -1.000000e+01 -3.705894e+00
      vertex   1.759978e+01 -1.000000e+01 -4.029139e+00
    endloop
  endfacet
  facet normal -8.257935e-02 0.000000e+00 9.965845e-01
    outer loop
      vertex   1.759978e+01 1.000000e+01 -4.029139e+00
      vertex   1.759978e+01 -1.000000e+01 -4.029139e+00
      vertex   1.891204e+01 1.000000e+01 -3.920402e+00
    endloop
  endfacet
  facet normal -8.257935e-02 2.212862e-17 9.965845e-01
    outer loop
      vertex   1.891204e+01 1.000000e+01 -3.920402e+00
      vertex   1.759978e+01 -1.000000e+01 -4.029139e+00
      vertex   1.891204e+01 -1.000000e+01 -3.920402e+00
    endloop
  endfacet
  facet normal -4.016954e-01 2.033425e-17 9.157733e-01
    outer loop
      vertex   1.891204e+01 1.000000e+01 -3.920402e+00
      vertex   1.891204e+01 -1.000000e+01 -3.920402e+00
      vertex   2.011789e+01 1.000000e+01 -3.391467e+00
    endloop
  endfacet
  facet normal -4.016954e-01 0.000000e+00 9.157733e-01
    outer loop
      vertex   2.011789e+01 1.000000e+01 -3.391467e+00
      vertex   1.891204e+01 -1.000000e+01 -3.920402e+00
      vertex   2.011789e+01 -1.000000e+01 -3.391467e+00
    endloop
  endfacet
  facet normal -6.772816e-01 0.000000e+00 7.357239e-01
    outer loop
      vertex   2.011789e+01 1.000000e+01 -3.391467e+00
      vertex   2.011789e+01 -1.000000e+01 -3.391467e+00
      vertex   2.108666e+01 1.000000e+01 -2.499652e+00
    endloop
  endfacet
  facet normal -6.772816e-01 0.000000e+00 7.357239e-01
    outer loop
      vertex   2.108666e+01 1.000000e+01 -2.499652e+00
      vertex   2.011789e+01 -1.000000e+01 -3.391467e+00
      vertex   2.108666e+01 -1.000000e+01 -2.499652e+00
    endloop
  endfacet
  facet normal -8.794738e-01 0.000000e+00 4.759474e-01
    outer loop
      vertex   2.108666e+01 1.000000e+01 -2.499652e+00
      vertex   2.108666e+01 -1.000000e+01 -2.499652e+00
      vertex   2.171337e+01 1.000000e+01 -1.341599e+00
    endloop
  endfacet
  facet normal -8.794738e-01 0.000000e+00 4.759474e-01
    outer loop
      vertex   2.171337e+01 1.000000e+01 -1.341599e+00
      vertex   2.108666e+01 -1.000000e+01 -2.499652e+00
      vertex   2.171337e+01 -1.000000e+01 -1.341599e+00
    endloop
  endfacet
  facet normal 2.188649e-02 -0.000000e+00 9.997605e-01
    outer loop
      vertex   9.030852e+00 -1.000000e+01 9.073501e+00
      vertex   1.917816e+01 -1.000000e+01 8.851358e+00
      vertex   9.030852e+00 1.000000e+01 9.073501e+00
    endloop
  endfacet
  facet normal 2.188649e-02 0.000000e+00 9.997605e-01
    outer loop
      vertex   9.030852e+00 1.000000e+01 9.073501e+00
      vertex   1.917816e+01 -1.000000e+01 8.851358e+00
      vertex   1.917816e+01 1.000000e+01 8.851358e+00
    endloop
  endfacet
  facet normal -2.386709e-16 0.000000e+00 1.000000e+00
    outer loop
      vertex   1.917816e+01 -1.000000e+01 8.851358e+00
      vertex   5.639168e+01 -1.000000e+01 8.851358e+00
      vertex   1.917816e+01 1.000000e+01 8.851358e+00
    endloop
  endfacet
  facet normal -2.386709e-16 0.000000e+00 1.000000e+00
    outer loop
      vertex   1.917816e+01 1.000000e+01 8.851358e+00
      vertex   5.639168e+01 -1.000000e+01 8.851358e+00
      vertex   5.639168e+01 1.000000e+01 8.851358e+00
    endloop
  endfacet
  facet normal 1.000000e+00 -0.000000e+00 3.359681e-16
    outer loop
      vertex   5.639168e+01 -1.000000e+01 8.851358e+00
      vertex   5.639168e+01 -1.000000e+01 -1.229776e+01
      vertex   5.639168e+01 1.000000e+01 8.851358e+00
    endloop
  endfacet
  facet normal 1.000000e+00 0.000000e+00 3.359681e-16
    outer loop
      vertex   5.639168e+01 1.000000e+01 8.851358e+00
      vertex   5.639168e+01 -1.000000e+01 -1.229776e+01
      vertex   5.639168e+01 1.000000e+01 -1.229776e+01
    endloop
  endfacet
  facet normal 9.887900e-01 0.000000e+00 -1.493130e-01
    outer loop
      vertex   5.639168e+01 -1.000000e+01 -1.229776e+01
      vertex   3.890511e+01 -1.000000e+01 -1.280984e+02
      vertex   5.639168e+01 1.000000e+01 -1.229776e+01
    endloop
  endfacet
  facet normal 9.887900e-01 0.000000e+00 -1.493130e-01
    outer loop
      vertex   5.639168e+01 1.000000e+01 -1.229776e+01
      vertex   3.890511e+01 -1.000000e+01 -1.280984e+02
      vertex   3.890511e+01 1.000000e+01 -1.280984e+02
    endloop
  endfacet
  facet normal 0.000000e+00 0.000000e+00 -1.000000e+00
    outer loop
      vertex   3.890511e+01 -1.000000e+01 -1.280984e+02
      vertex   3.683338e+01 -1.000000e+01 -1.280984e+02
      vertex   3.890511e+01 1.000000e+01 -1.280984e+02
    endloop
  endfacet
  facet normal -0.000000e+00 0.000000e+00 -1.000000e+00
    outer loop
      vertex   3.890511e+01 1.000000e+01 -1.280984e+02
      vertex   3.683338e+01 -1.000000e+01 -1.280984e+02
      vertex   3.683338e+01 1.000000e+01 -1.280984e+02
    endloop
  endfacet
  facet normal -9.885958e-01 0.000000e+00 -1.505935e-01
    outer loop
      vertex   3.683338e+01 -1.000000e+01 -1.280984e+02
      vertex   1.917816e+01 -1.000000e+01 -1.219787e+01
      vertex   3.683338e+01 1.000000e+01 -1.280984e+02
    endloop
  endfacet
  facet normal -9.885958e-01 0.000000e+00 -1.505935e-01
    outer loop
      vertex   3.683338e+01 1.000000e+01 -1.280984e+02
      vertex   1.917816e+01 -1.000000e+01 -1.219787e+01
      vertex   1.917816e+01 1.000000e+01 -1.219787e+01
    endloop
  endfacet
  facet normal -5.708072e-01 0.000000e+00 -8.210842e-01
    outer loop
      vertex   1.917816e+01 -1.000000e+01 -1.219787e+01
      vertex   9.030852e+00 -1.000000e+01 -5.143589e+00
      vertex   1.917816e+01 1.000000e+01 -1.219787e+01
    endloop
  endfacet
  facet normal -5.708072e-01 0.000000e+00 -8.210842e-01
    outer loop
      vertex   1.917816e+01 1.000000e+01 -1.219787e+01
      vertex   9.030852e+00 -1.000000e+01 -5.143589e+00
      vertex   9.030852e+00 1.000000e+01 -5.143589e+00
    endloop
  endfacet
  facet normal -1.000000e+00 0.000000e+00 -3.123630e-15
    outer loop
      vertex   9.030852e+00 -1.000000e+01 -5.143589e+00
      vertex   9.030852e+00 -1.000000e+01 9.073501e+00
      vertex   9.030852e+00 1.000000e+01 -5.143589e+00
    endloop
  endfacet
  facet normal -1.000000e+00 0.000000e+00 -3.123630e-15
    outer loop
      vertex   9.030852e+00 1.000000e+01 -5.143589e+00
      vertex   9.030852e+00 -1.000000e+01 9.073501e+00
      vertex   9.030852e+00 1.000000e+01 9.073501e+00
    endloop
  endfacet
  facet normal 0.000000e+00 -1.000000e+00 0.000000e+00
    outer loop
      vertex   2.171337e+01 -1.000000e+01 -1.341599e+00
      vertex   3.590082e+01 -1.000000e+01 1.452727e+00
      vertex   2.193010e+01 -1.000000e+01 -4.280097e-02
    endloop
  endfacet
  facet normal 0.000000e+00 -1.000000e+00 0.000000e+00
    outer loop
      vertex   2.193010e+01 -1.000000e+01 -4.280097e-02
      vertex   3.590082e+01 -1.000000e+01 1.452727e+00
      vertex   3.590082e+01 -1.000000e+01 2.360212e+00
    endloop
  endfacet
  facet normal 0.000000e+00 -1.000000e+00 0.000000e+00
    outer loop
      vertex   2.193010e+01 -1.000000e+01 -4.280097e-02
      vertex   3.590082e+01 -1.000000e+01 2.360212e+00
      vertex   2.171337e+01 -1.000000e+01 1.255997e+00
    endloop
  endfacet
  facet normal 0.000000e+00 -1.000000e+00 0.000000e+00
    outer loop
      vertex   2.171337e+01 -1.000000e+01 1.255997e+00
      vertex   3.590082e+01 -1.000000e+01 2.360212e+00
      vertex   1.917816e+01 -1.000000e+01 8.851358e+00
    endloop
  endfacet
  facet normal 0.000000e+00 -1.000000e+00 0.000000e+00
    outer loop
      vertex   2.171337e+01 -1.000000e+01 1.255997e+00
      vertex   1.917816e+01 -1.000000e+01 8.851358e+00
      vertex   2.108666e+01 -1.000000e+01 2.414050e+00
    endloop
  endfacet
  facet normal 0.000000e+00 -1.000000e+00 0.000000e+00
    outer loop
      vertex   2.108666e+01 -1.000000e+01 2.414050e+00
      vertex   1.917816e+01 -1.000000e+01 8.851358e+00
      vertex   2.011789e+01 -1.000000e+01 3.305865e+00
    endloop
  endfacet
  facet normal 0.000000e+00 -1.000000e+00 0.000000e+00
    outer loop
      vertex   2.011789e+01 -1.000000e+01 3.305865e+00
      vertex   1.917816e+01 -1.000000e+01 8.851358e+00
      vertex   1.891204e+01 -1.000000e+01 3.834800e+00
    endloop
  endfacet
  facet normal 0.000000e+00 -1.000000e+00 0.000000e+00
    outer loop
      vertex   1.891204e+01 -1.000000e+01 3.834800e+00
      vertex   1.917816e+01 -1.000000e+01 8.851358e+00
      vertex   1.759978e+01 -1.000000e+01 3.943537e+00
    endloop
  endfacet
  facet normal -0.000000e+00 -1.000000e+00 0.000000e+00
    outer loop
      vertex   1.759978e+01 -1.000000e+01 3.943537e+00
      vertex   1.917816e+01 -1.000000e+01 8.851358e+00
      vertex   1.632332e+01 -1.000000e+01 3.620292e+00
    endloop
  endfacet
  facet normal -0.000000e+00 -1.000000e+00 0.000000e+00
    outer loop
      vertex   1.632332e+01 -1.000000e+01 3.620292e+00
      vertex   1.917816e+01 -1.000000e+01 8.851358e+00
      vertex   1.522097e+01 -1.000000e+01 2.900095e+00
    endloop
  endfacet
  facet normal 0.000000e+00 -1.000000e+00 0.000000e+00
    outer loop
      vertex   1.522097e+01 -1.000000e+01 2.900095e+00
      vertex   1.917816e+01 -1.000000e+01 8.851358e+00
      vertex   9.030852e+00 -1.000000e+01 9.073501e+00
    endloop
  endfacet
  facet normal -0.000000e+00 -1.000000e+00 0.000000e+00
    outer loop
      vertex   1.522097e+01 -1.000000e+01 2.900095e+00
      vertex   9.030852e+00 -1.000000e+01 9.073501e+00
      vertex   1.441220e+01 -1.000000e+01 1.860989e+00
    endloop
  endfacet
  facet normal -0.000000e+00 -1.000000e+00 0.000000e+00
    outer loop
      vertex   1.441220e+01 -1.000000e+01 1.860989e+00
      vertex   9.030852e+00 -1.000000e+01 9.073501e+00
      vertex   1.398465e+01 -1.000000e+01 6.155774e-01
    endloop
  endfacet
  facet normal -0.000000e+00 -1.000000e+00 0.000000e+00
    outer loop
      vertex   1.398465e+01 -1.000000e+01 6.155774e-01
      vertex   9.030852e+00 -1.000000e+01 9.073501e+00
      vertex   9.030852e+00 -1.000000e+01 -5.143589e+00
    endloop
  endfacet
  facet normal 0.000000e+00 -1.000000e+00 -0.000000e+00
    outer loop
      vertex   1.398465e+01 -1.000000e+01 6.155774e-01
      vertex   9.030852e+00 -1.000000e+01 -5.143589e+00
      vertex   1.398465e+01 -1.000000e+01 -7.011793e-01
    endloop
  endfacet
  facet normal 0.000000e+00 -1.000000e+00 -0.000000e+00
    outer loop
      vertex   1.398465e+01 -1.000000e+01 -7.011793e-01
      vertex   9.030852e+00 -1.000000e+01 -5.143589e+00
      vertex   1.441220e+01 -1.000000e+01 -1.946591e+00
    endloop
  endfacet
  facet normal 0.000000e+00 -1.000000e+00 -0.000000e+00
    outer loop
      vertex   1.441220e+01 -1.000000e+01 -1.946591e+00
      vertex   9.030852e+00 -1.000000e+01 -5.143589e+00
      vertex   1.522097e+01 -1.000000e+01 -2.985697e+00
    endloop
  endfacet
  facet normal 0.000000e+00 -1.000000e+00 -0.000000e+00
    outer loop
      vertex   1.522097e+01 -1.000000e+01 -2.985697e+00
      vertex   9.030852e+00 -1.000000e+01 -5.143589e+00
      vertex   1.917816e+01 -1.000000e+01 -1.219787e+01
    endloop
  endfacet
  facet normal 0.000000e+00 -1.000000e+00 0.000000e+00
    outer loop
      vertex   1.522097e+01 -1.000000e+01 -2.985697e+00
      vertex   1.917816e+01 -1.000000e+01 -1.219787e+01
      vertex   1.632332e+01 -1.000000e+01 -3.705894e+00
    endloop
  endfacet
  facet normal 0.000000e+00 -1.000000e+00 0.000000e+00
    outer loop
      vertex   1.632332e+01 -1.000000e+01 -3.705894e+00
      vertex   1.917816e+01 -1.000000e+01 -1.219787e+01
      vertex   1.759978e+01 -1.000000e+01 -4.029139e+00
    endloop
  endfacet
  facet normal 0.000000e+00 -1.000000e+00 0.000000e+00
    outer loop
      vertex   1.759978e+01 -1.000000e+01 -4.029139e+00
      vertex   1.917816e+01 -1.000000e+01 -1.219787e+01
      vertex   1.891204e+01 -1.000000e+01 -3.920402e+00
    endloop
  endfacet
  facet normal 0.000000e+00 -1.000000e+00 0.000000e+00
    outer loop
      vertex   1.891204e+01 -1.000000e+01 -3.920402e+00
      vertex   1.917816e+01 -1.000000e+01 -1.219787e+01
      vertex   2.011789e+01 -1.000000e+01 -3.391467e+00
    endloop
  endfacet
  facet normal 0.000000e+00 -1.000000e+00 -0.000000e+00
    outer loop
      vertex   2.011789e+01 -1.000000e+01 -3.391467e+00
      vertex   1.917816e+01 -1.000000e+01 -1.219787e+01
      vertex   2.108666e+01 -1.000000e+01 -2.499652e+00
    endloop
  endfacet
  facet normal 0.000000e+00 -1.000000e+00 -0.000000e+00
    outer loop
      vertex   2.108666e+01 -1.000000e+01 -2.499652e+00
      vertex   1.917816e+01 -1.000000e+01 -1.219787e+01
      vertex   2.171337e+01 -1.000000e+01 -1.341599e+00
    endloop
  endfacet
  facet normal 0.000000e+00 -1.000000e+00 -0.000000e+00
    outer loop
      vertex   2.171337e+01 -1.000000e+01 -1.341599e+00
      vertex   1.917816e+01 -1.000000e+01 -1.219787e+01
      vertex   3.590082e+01 -1.000000e+01 1.452727e+00
    endloop
  endfacet
  facet normal 0.000000e+00 -1.000000e+00 0.000000e+00
    outer loop
      vertex   3.942055e+01 -1.000000e+01 1.025354e+00
      vertex   5.639168e+01 -1.000000e+01 -1.229776e+01
      vertex   3.963772e+01 -1.000000e+01 1.906469e+00
    endloop
  endfacet
  facet normal 0.000000e+00 -1.000000e+00 0.000000e+00
    outer loop
      vertex   3.963772e+01 -1.000000e+01 1.906469e+00
      vertex   5.639168e+01 -1.000000e+01 -1.229776e+01
      vertex   5.639168e+01 -1.000000e+01 8.851358e+00
    endloop
  endfacet
  facet normal 0.000000e+00 -1.000000e+00 0.000000e+00
    outer loop
      vertex   3.963772e+01 -1.000000e+01 1.906469e+00
      vertex   5.639168e+01 -1.000000e+01 8.851358e+00
      vertex   3.942055e+01 -1.000000e+01 2.787584e+00
    endloop
  endfacet
  facet normal 0.000000e+00 -1.000000e+00 0.000000e+00
    outer loop
      vertex   3.942055e+01 -1.000000e+01 2.787584e+00
      vertex   5.639168e+01 -1.000000e+01 8.851358e+00
      vertex   3.881877e+01 -1.000000e+01 3.466847e+00
    endloop
  endfacet
  facet normal 0.000000e+00 -1.000000e+00 0.000000e+00
    outer loop
      vertex   3.881877e+01 -1.000000e+01 3.466847e+00
      vertex   5.639168e+01 -1.000000e+01 8.851358e+00
      vertex   3.797026e+01 -1.000000e+01 3.788646e+00
    endloop
  endfacet
  facet normal 0.000000e+00 -1.000000e+00 0.000000e+00
    outer loop
      vertex   3.797026e+01 -1.000000e+01 3.788646e+00
      vertex   5.639168e+01 -1.000000e+01 8.851358e+00
      vertex   1.917816e+01 -1.000000e+01 8.851358e+00
    endloop
  endfacet
  facet normal -0.000000e+00 -1.000000e+00 0.000000e+00
    outer loop
      vertex   3.797026e+01 -1.000000e+01 3.788646e+00
      vertex   1.917816e+01 -1.000000e+01 8.851358e+00
      vertex   3.706939e+01 -1.000000e+01 3.679260e+00
    endloop
  endfacet
  facet normal -0.000000e+00 -1.000000e+00 0.000000e+00
    outer loop
      vertex   3.706939e+01 -1.000000e+01 3.679260e+00
      vertex   1.917816e+01 -1.000000e+01 8.851358e+00
      vertex   3.632254e+01 -1.000000e+01 3.163750e+00
    endloop
  endfacet
  facet normal -0.000000e+00 -1.000000e+00 0.000000e+00
    outer loop
      vertex   3.632254e+01 -1.000000e+01 3.163750e+00
      vertex   1.917816e+01 -1.000000e+01 8.851358e+00
      vertex   3.590082e+01 -1.000000e+01 2.360212e+00
    endloop
  endfacet
  facet normal 0.000000e+00 -1.000000e+00 -0.000000e+00
    outer loop
      vertex   3.942055e+01 -1.000000e+01 1.025354e+00
      vertex   3.881877e+01 -1.000000e+01 3.460916e-01
      vertex   5.639168e+01 -1.000000e+01 -1.229776e+01
    endloop
  endfacet
  facet normal -0.000000e+00 -1.000000e+00 0.000000e+00
    outer loop
      vertex   5.639168e+01 -1.000000e+01 -1.229776e+01
      vertex   3.881877e+01 -1.000000e+01 3.460916e-01
      vertex   3.890511e+01 -1.000000e+01 -1.280984e+02
    endloop
  endfacet
  facet normal 0.000000e+00 -1.000000e+00 0.000000e+00
    outer loop
      vertex   3.890511e+01 -1.000000e+01 -1.280984e+02
      vertex   3.881877e+01 -1.000000e+01 3.460916e-01
      vertex   3.797026e+01 -1.000000e+01 2.429290e-02
    endloop
  endfacet
  facet normal 0.000000e+00 -1.000000e+00 0.000000e+00
    outer loop
      vertex   3.890511e+01 -1.000000e+01 -1.280984e+02
      vertex   3.797026e+01 -1.000000e+01 2.429290e-02
      vertex   3.683338e+01 -1.000000e+01 -1.280984e+02
    endloop
  endfacet
  facet normal 0.000000e+00 -1.000000e+00 0.000000e+00
    outer loop
      vertex   3.683338e+01 -1.000000e+01 -1.280984e+02
      vertex   3.797026e+01 -1.000000e+01 2.429290e-02
      vertex   3.706939e+01 -1.000000e+01 1.336781e-01
    endloop
  endfacet
  facet normal 0.000000e+00 -1.000000e+00 0.000000e+00
    outer loop
      vertex   3.683338e+01 -1.000000e+01 -1.280984e+02
      vertex   3.706939e+01 -1.000000e+01 1.336781e-01
      vertex   1.917816e+01 -1.000000e+01 -1.219787e+01
    endloop
  endfacet
  facet normal 0.000000e+00 -1.000000e+00 0.000000e+00
    outer loop
      vertex   1.917816e+01 -1.000000e+01 -1.219787e+01
      vertex   3.706939e+01 -1.000000e+01 1.336781e-01
      vertex   3.632254e+01 -1.000000e+01 6.491885e-01
    endloop
  endfacet
  facet normal 0.000000e+00 -1.000000e+00 0.000000e+00
    outer loop
      vertex   1.917816e+01 -1.000000e+01 -1.219787e+01
      vertex   3.632254e+01 -1.000000e+01 6.491885e-01
      vertex   3.590082e+01 -1.000000e+01 1.452727e+00
    endloop
  endfacet
endsolid
