solid ASCII
  facet normal -0.000000e+00 -1.000000e+00 0.000000e+00
    outer loop
      vertex   -3.948934e+01 -1.000000e+01 2.829755e+00
      vertex   -5.646047e+01 -1.000000e+01 8.893529e+00
      vertex   -3.970652e+01 -1.000000e+01 1.948639e+00
    endloop
  endfacet
  facet normal -0.000000e+00 -1.000000e+00 0.000000e+00
    outer loop
      vertex   -3.970652e+01 -1.000000e+01 1.948639e+00
      vertex   -5.646047e+01 -1.000000e+01 8.893529e+00
      vertex   -5.646047e+01 -1.000000e+01 -1.225559e+01
    endloop
  endfacet
  facet normal 0.000000e+00 -1.000000e+00 -0.000000e+00
    outer loop
      vertex   -3.970652e+01 -1.000000e+01 1.948639e+00
      vertex   -5.646047e+01 -1.000000e+01 -1.225559e+01
      vertex   -3.948934e+01 -1.000000e+01 1.067524e+00
    endloop
  endfacet
  facet normal 0.000000e+00 -1.000000e+00 -0.000000e+00
    outer loop
      vertex   -3.948934e+01 -1.000000e+01 1.067524e+00
      vertex   -5.646047e+01 -1.000000e+01 -1.225559e+01
      vertex   -3.888757e+01 -1.000000e+01 3.882617e-01
    endloop
  endfacet
  facet normal 0.000000e+00 -1.000000e+00 0.000000e+00
    outer loop
      vertex   -3.888757e+01 -1.000000e+01 3.882617e-01
      vertex   -5.646047e+01 -1.000000e+01 -1.225559e+01
      vertex   -3.897391e+01 -1.000000e+01 -1.280562e+02
    endloop
  endfacet
  facet normal 0.000000e+00 -1.000000e+00 -0.000000e+00
    outer loop
      vertex   -3.888757e+01 -1.000000e+01 3.882617e-01
      vertex   -3.897391e+01 -1.000000e+01 -1.280562e+02
      vertex   -3.803906e+01 -1.000000e+01 6.646308e-02
    endloop
  endfacet
  facet normal 0.000000e+00 -1.000000e+00 -0.000000e+00
    outer loop
      vertex   -3.803906e+01 -1.000000e+01 6.646308e-02
      vertex   -3.897391e+01 -1.000000e+01 -1.280562e+02
      vertex   -3.690217e+01 -1.000000e+01 -1.280562e+02
    endloop
  endfacet
  facet normal 0.000000e+00 -1.000000e+00 0.000000e+00
    outer loop
      vertex   -3.803906e+01 -1.000000e+01 6.646308e-02
      vertex   -3.690217e+01 -1.000000e+01 -1.280562e+02
      vertex   -3.713819e+01 -1.000000e+01 1.758483e-01
    endloop
  endfacet
  facet normal 0.000000e+00 -1.000000e+00 0.000000e+00
    outer loop
      vertex   -3.713819e+01 -1.000000e+01 1.758483e-01
      vertex   -3.690217e+01 -1.000000e+01 -1.280562e+02
      vertex   -1.924696e+01 -1.000000e+01 -1.215570e+01
    endloop
  endfacet
  facet normal 0.000000e+00 -1.000000e+00 0.000000e+00
    outer loop
      vertex   -3.713819e+01 -1.000000e+01 1.758483e-01
      vertex   -1.924696e+01 -1.000000e+01 -1.215570e+01
      vertex   -3.639134e+01 -1.000000e+01 6.913586e-01
    endloop
  endfacet
  facet normal 0.000000e+00 -1.000000e+00 0.000000e+00
    outer loop
      vertex   -3.639134e+01 -1.000000e+01 6.913586e-01
      vertex   -1.924696e+01 -1.000000e+01 -1.215570e+01
      vertex   -3.596961e+01 -1.000000e+01 1.494897e+00
    endloop
  endfacet
  facet normal 0.000000e+00 -1.000000e+00 0.000000e+00
    outer loop
      vertex   -3.596961e+01 -1.000000e+01 1.494897e+00
      vertex   -1.924696e+01 -1.000000e+01 -1.215570e+01
      vertex   -2.178216e+01 -1.000000e+01 -1.299429e+00
    endloop
  endfacet
  facet normal 0.000000e+00 -1.000000e+00 0.000000e+00
    outer loop
      vertex   -3.596961e+01 -1.000000e+01 1.494897e+00
      vertex   -2.178216e+01 -1.000000e+01 -1.299429e+00
      vertex   -2.199890e+01 -1.000000e+01 -6.307922e-04
    endloop
  endfacet
  facet normal 0.000000e+00 -1.000000e+00 0.000000e+00
    outer loop
      vertex   -3.948934e+01 -1.000000e+01 2.829755e+00
      vertex   -3.888757e+01 -1.000000e+01 3.509017e+00
      vertex   -5.646047e+01 -1.000000e+01 8.893529e+00
    endloop
  endfacet
  facet normal 0.000000e+00 -1.000000e+00 0.000000e+00
    outer loop
      vertex   -5.646047e+01 -1.000000e+01 8.893529e+00
      vertex   -3.888757e+01 -1.000000e+01 3.509017e+00
      vertex   -3.803906e+01 -1.000000e+01 3.830816e+00
    endloop
  endfacet
  facet normal 0.000000e+00 -1.000000e+00 0.000000e+00
    outer loop
      vertex   -5.646047e+01 -1.000000e+01 8.893529e+00
      vertex   -3.803906e+01 -1.000000e+01 3.830816e+00
      vertex   -1.924696e+01 -1.000000e+01 8.893529e+00
    endloop
  endfacet
  facet normal 0.000000e+00 -1.000000e+00 0.000000e+00
    outer loop
      vertex   -1.924696e+01 -1.000000e+01 8.893529e+00
      vertex   -3.803906e+01 -1.000000e+01 3.830816e+00
      vertex   -3.713819e+01 -1.000000e+01 3.721430e+00
    endloop
  endfacet
  facet normal 0.000000e+00 -1.000000e+00 0.000000e+00
    outer loop
      vertex   -1.924696e+01 -1.000000e+01 8.893529e+00
      vertex   -3.713819e+01 -1.000000e+01 3.721430e+00
      vertex   -3.639134e+01 -1.000000e+01 3.205920e+00
    endloop
  endfacet
  facet normal 0.000000e+00 -1.000000e+00 0.000000e+00
    outer loop
      vertex   -3.639134e+01 -1.000000e+01 3.205920e+00
      vertex   -3.596961e+01 -1.000000e+01 2.402382e+00
      vertex   -1.924696e+01 -1.000000e+01 8.893529e+00
    endloop
  endfacet
  facet normal 0.000000e+00 -1.000000e+00 0.000000e+00
    outer loop
      vertex   -1.924696e+01 -1.000000e+01 8.893529e+00
      vertex   -3.596961e+01 -1.000000e+01 2.402382e+00
      vertex   -2.178216e+01 -1.000000e+01 1.298167e+00
    endloop
  endfacet
  facet normal 0.000000e+00 -1.000000e+00 0.000000e+00
    outer loop
      vertex   -1.924696e+01 -1.000000e+01 8.893529e+00
      vertex   -2.178216e+01 -1.000000e+01 1.298167e+00
      vertex   -2.115546e+01 -1.000000e+01 2.456220e+00
    endloop
  endfacet
  facet normal -0.000000e+00 -1.000000e+00 0.000000e+00
    outer loop
      vertex   -2.178216e+01 -1.000000e+01 1.298167e+00
      vertex   -3.596961e+01 -1.000000e+01 2.402382e+00
      vertex   -2.199890e+01 -1.000000e+01 -6.307922e-04
    endloop
  endfacet
  facet normal 0.000000e+00 -1.000000e+00 0.000000e+00
    outer loop
      vertex   -2.199890e+01 -1.000000e+01 -6.307922e-04
      vertex   -3.596961e+01 -1.000000e+01 2.402382e+00
      vertex   -3.596961e+01 -1.000000e+01 1.494897e+00
    endloop
  endfacet
  facet normal 0.000000e+00 -1.000000e+00 0.000000e+00
    outer loop
      vertex   -2.115546e+01 -1.000000e+01 2.456220e+00
      vertex   -2.018669e+01 -1.000000e+01 3.348035e+00
      vertex   -1.924696e+01 -1.000000e+01 8.893529e+00
    endloop
  endfacet
  facet normal 0.000000e+00 -1.000000e+00 -0.000000e+00
    outer loop
      vertex   -1.924696e+01 -1.000000e+01 8.893529e+00
      vertex   -2.018669e+01 -1.000000e+01 3.348035e+00
      vertex   -1.898084e+01 -1.000000e+01 3.876970e+00
    endloop
  endfacet
  facet normal 0.000000e+00 -1.000000e+00 0.000000e+00
    outer loop
      vertex   -1.924696e+01 -1.000000e+01 8.893529e+00
      vertex   -1.898084e+01 -1.000000e+01 3.876970e+00
      vertex   -1.766858e+01 -1.000000e+01 3.985707e+00
    endloop
  endfacet
  facet normal 0.000000e+00 -1.000000e+00 0.000000e+00
    outer loop
      vertex   -1.766858e+01 -1.000000e+01 3.985707e+00
      vertex   -1.639211e+01 -1.000000e+01 3.662463e+00
      vertex   -1.924696e+01 -1.000000e+01 8.893529e+00
    endloop
  endfacet
  facet normal 0.000000e+00 -1.000000e+00 0.000000e+00
    outer loop
      vertex   -1.924696e+01 -1.000000e+01 8.893529e+00
      vertex   -1.639211e+01 -1.000000e+01 3.662463e+00
      vertex   -1.528977e+01 -1.000000e+01 2.942265e+00
    endloop
  endfacet
  facet normal 0.000000e+00 -1.000000e+00 0.000000e+00
    outer loop
      vertex   -1.924696e+01 -1.000000e+01 8.893529e+00
      vertex   -1.528977e+01 -1.000000e+01 2.942265e+00
      vertex   -9.099648e+00 -1.000000e+01 9.115671e+00
    endloop
  endfacet
  facet normal 0.000000e+00 -1.000000e+00 0.000000e+00
    outer loop
      vertex   -9.099648e+00 -1.000000e+01 9.115671e+00
      vertex   -1.528977e+01 -1.000000e+01 2.942265e+00
      vertex   -1.448100e+01 -1.000000e+01 1.903159e+00
    endloop
  endfacet
  facet normal 0.000000e+00 -1.000000e+00 0.000000e+00
    outer loop
      vertex   -9.099648e+00 -1.000000e+01 9.115671e+00
      vertex   -1.448100e+01 -1.000000e+01 1.903159e+00
      vertex   -1.405345e+01 -1.000000e+01 6.577476e-01
    endloop
  endfacet
  facet normal 0.000000e+00 -1.000000e+00 0.000000e+00
    outer loop
      vertex   -9.099648e+00 -1.000000e+01 9.115671e+00
      vertex   -1.405345e+01 -1.000000e+01 6.577476e-01
      vertex   -9.099648e+00 -1.000000e+01 -5.101419e+00
    endloop
  endfacet
  facet normal 0.000000e+00 -1.000000e+00 0.000000e+00
    outer loop
      vertex   -9.099648e+00 -1.000000e+01 -5.101419e+00
      vertex   -1.405345e+01 -1.000000e+01 6.577476e-01
      vertex   -1.405345e+01 -1.000000e+01 -6.590092e-01
    endloop
  endfacet
  facet normal 0.000000e+00 -1.000000e+00 0.000000e+00
    outer loop
      vertex   -9.099648e+00 -1.000000e+01 -5.101419e+00
      vertex   -1.405345e+01 -1.000000e+01 -6.590092e-01
      vertex   -1.448100e+01 -1.000000e+01 -1.904420e+00
    endloop
  endfacet
  facet normal 0.000000e+00 -1.000000e+00 -0.000000e+00
    outer loop
      vertex   -1.448100e+01 -1.000000e+01 -1.904420e+00
      vertex   -1.528977e+01 -1.000000e+01 -2.943526e+00
      vertex   -9.099648e+00 -1.000000e+01 -5.101419e+00
    endloop
  endfacet
  facet normal -0.000000e+00 -1.000000e+00 0.000000e+00
    outer loop
      vertex   -9.099648e+00 -1.000000e+01 -5.101419e+00
      vertex   -1.528977e+01 -1.000000e+01 -2.943526e+00
      vertex   -1.924696e+01 -1.000000e+01 -1.215570e+01
    endloop
  endfacet
  facet normal 0.000000e+00 -1.000000e+00 0.000000e+00
    outer loop
      vertex   -1.924696e+01 -1.000000e+01 -1.215570e+01
      vertex   -1.528977e+01 -1.000000e+01 -2.943526e+00
      vertex   -1.639211e+01 -1.000000e+01 -3.663724e+00
    endloop
  endfacet
  facet normal 0.000000e+00 -1.000000e+00 0.000000e+00
    outer loop
      vertex   -1.924696e+01 -1.000000e+01 -1.215570e+01
      vertex   -1.639211e+01 -1.000000e+01 -3.663724e+00
      vertex   -1.766858e+01 -1.000000e+01 -3.986969e+00
    endloop
  endfacet
  facet normal -0.000000e+00 -1.000000e+00 0.000000e+00
    outer loop
      vertex   -1.766858e+01 -1.000000e+01 -3.986969e+00
      vertex   -1.898084e+01 -1.000000e+01 -3.878232e+00
      vertex   -1.924696e+01 -1.000000e+01 -1.215570e+01
    endloop
  endfacet
  facet normal 0.000000e+00 -1.000000e+00 0.000000e+00
    outer loop
      vertex   -1.924696e+01 -1.000000e+01 -1.215570e+01
      vertex   -1.898084e+01 -1.000000e+01 -3.878232e+00
      vertex   -2.018669e+01 -1.000000e+01 -3.349297e+00
    endloop
  endfacet
  facet normal 0.000000e+00 -1.000000e+00 0.000000e+00
    outer loop
      vertex   -1.924696e+01 -1.000000e+01 -1.215570e+01
      vertex   -2.018669e+01 -1.000000e+01 -3.349297e+00
      vertex   -2.115546e+01 -1.000000e+01 -2.457482e+00
    endloop
  endfacet
  facet normal -0.000000e+00 -1.000000e+00 -0.000000e+00
    outer loop
      vertex   -2.115546e+01 -1.000000e+01 -2.457482e+00
      vertex   -2.178216e+01 -1.000000e+01 -1.299429e+00
      vertex   -1.924696e+01 -1.000000e+01 -1.215570e+01
    endloop
  endfacet
  facet normal 9.863613e-01 -0.000000e+00 1.645946e-01
    outer loop
      vertex   -2.178216e+01 -1.000000e+01 -1.299429e+00
      vertex   -2.178216e+01 1.000000e+01 -1.299429e+00
      vertex   -2.199890e+01 -1.000000e+01 -6.307922e-04
    endloop
  endfacet
  facet normal 9.863613e-01 -0.000000e+00 1.645946e-01
    outer loop
      vertex   -2.199890e+01 -1.000000e+01 -6.307922e-04
      vertex   -2.178216e+01 1.000000e+01 -1.299429e+00
      vertex   -2.199890e+01 1.000000e+01 -6.307922e-04
    endloop
  endfacet
  facet normal 9.863613e-01 0.000000e+00 -1.645946e-01
    outer loop
      vertex   -2.199890e+01 -1.000000e+01 -6.307922e-04
      vertex   -2.199890e+01 1.000000e+01 -6.307922e-04
      vertex   -2.178216e+01 -1.000000e+01 1.298167e+00
    endloop
  endfacet
  facet normal 9.863613e-01 0.000000e+00 -1.645946e-01
    outer loop
      vertex   -2.178216e+01 -1.000000e+01 1.298167e+00
      vertex   -2.199890e+01 1.000000e+01 -6.307922e-04
      vertex   -2.178216e+01 1.000000e+01 1.298167e+00
    endloop
  endfacet
  facet normal 8.794738e-01 0.000000e+00 -4.759474e-01
    outer loop
      vertex   -2.178216e+01 -1.000000e+01 1.298167e+00
      vertex   -2.178216e+01 1.000000e+01 1.298167e+00
      vertex   -2.115546e+01 -1.000000e+01 2.456220e+00
    endloop
  endfacet
  facet normal 8.794738e-01 0.000000e+00 -4.759474e-01
    outer loop
      vertex   -2.115546e+01 -1.000000e+01 2.456220e+00
      vertex   -2.178216e+01 1.000000e+01 1.298167e+00
      vertex   -2.115546e+01 1.000000e+01 2.456220e+00
    endloop
  endfacet
  facet normal 6.772816e-01 0.000000e+00 -7.357239e-01
    outer loop
      vertex   -2.115546e+01 -1.000000e+01 2.456220e+00
      vertex   -2.115546e+01 1.000000e+01 2.456220e+00
      vertex   -2.018669e+01 -1.000000e+01 3.348035e+00
    endloop
  endfacet
  facet normal 6.772816e-01 0.000000e+00 -7.357239e-01
    outer loop
      vertex   -2.018669e+01 -1.000000e+01 3.348035e+00
      vertex   -2.115546e+01 1.000000e+01 2.456220e+00
      vertex   -2.018669e+01 1.000000e+01 3.348035e+00
    endloop
  endfacet
  facet normal 4.016954e-01 0.000000e+00 -9.157733e-01
    outer loop
      vertex   -2.018669e+01 -1.000000e+01 3.348035e+00
      vertex   -2.018669e+01 1.000000e+01 3.348035e+00
      vertex   -1.898084e+01 -1.000000e+01 3.876970e+00
    endloop
  endfacet
  facet normal 4.016954e-01 2.033425e-17 -9.157733e-01
    outer loop
      vertex   -1.898084e+01 -1.000000e+01 3.876970e+00
      vertex   -2.018669e+01 1.000000e+01 3.348035e+00
      vertex   -1.898084e+01 1.000000e+01 3.876970e+00
    endloop
  endfacet
  facet normal 8.257935e-02 2.212862e-17 -9.965845e-01
    outer loop
      vertex   -1.898084e+01 -1.000000e+01 3.876970e+00
      vertex   -1.898084e+01 1.000000e+01 3.876970e+00
      vertex   -1.766858e+01 -1.000000e+01 3.985707e+00
    endloop
  endfacet
  facet normal 8.257935e-02 0.000000e+00 -9.965845e-01
    outer loop
      vertex   -1.766858e+01 -1.000000e+01 3.985707e+00
      vertex   -1.898084e+01 1.000000e+01 3.876970e+00
      vertex   -1.766858e+01 1.000000e+01 3.985707e+00
    endloop
  endfacet
  facet normal -2.454855e-01 0.000000e+00 -9.694003e-01
    outer loop
      vertex   -1.766858e+01 -1.000000e+01 3.985707e+00
      vertex   -1.766858e+01 1.000000e+01 3.985707e+00
      vertex   -1.639211e+01 -1.000000e+01 3.662463e+00
    endloop
  endfacet
  facet normal -2.454855e-01 5.569626e-19 -9.694003e-01
    outer loop
      vertex   -1.639211e+01 -1.000000e+01 3.662463e+00
      vertex   -1.766858e+01 1.000000e+01 3.985707e+00
      vertex   -1.639211e+01 1.000000e+01 3.662463e+00
    endloop
  endfacet
  facet normal -5.469482e-01 5.997985e-17 -8.371665e-01
    outer loop
      vertex   -1.639211e+01 -1.000000e+01 3.662463e+00
      vertex   -1.639211e+01 1.000000e+01 3.662463e+00
      vertex   -1.528977e+01 -1.000000e+01 2.942265e+00
    endloop
  endfacet
  facet normal -5.469482e-01 2.280219e-17 -8.371665e-01
    outer loop
      vertex   -1.528977e+01 -1.000000e+01 2.942265e+00
      vertex   -1.639211e+01 1.000000e+01 3.662463e+00
      vertex   -1.528977e+01 1.000000e+01 2.942265e+00
    endloop
  endfacet
  facet normal -7.891405e-01 8.562647e-17 -6.142127e-01
    outer loop
      vertex   -1.528977e+01 -1.000000e+01 2.942265e+00
      vertex   -1.528977e+01 1.000000e+01 2.942265e+00
      vertex   -1.448100e+01 -1.000000e+01 1.903159e+00
    endloop
  endfacet
  facet normal -7.891405e-01 0.000000e+00 -6.142127e-01
    outer loop
      vertex   -1.448100e+01 -1.000000e+01 1.903159e+00
      vertex   -1.528977e+01 1.000000e+01 2.942265e+00
      vertex   -1.448100e+01 1.000000e+01 1.903159e+00
    endloop
  endfacet
  facet normal -9.458172e-01 0.000000e+00 -3.246995e-01
    outer loop
      vertex   -1.448100e+01 -1.000000e+01 1.903159e+00
      vertex   -1.448100e+01 1.000000e+01 1.903159e+00
      vertex   -1.405345e+01 -1.000000e+01 6.577476e-01
    endloop
  endfacet
  facet normal -9.458172e-01 0.000000e+00 -3.246995e-01
    outer loop
      vertex   -1.405345e+01 -1.000000e+01 6.577476e-01
      vertex   -1.448100e+01 1.000000e+01 1.903159e+00
      vertex   -1.405345e+01 1.000000e+01 6.577476e-01
    endloop
  endfacet
  facet normal -1.000000e+00 0.000000e+00 0.000000e+00
    outer loop
      vertex   -1.405345e+01 -1.000000e+01 6.577476e-01
      vertex   -1.405345e+01 1.000000e+01 6.577476e-01
      vertex   -1.405345e+01 -1.000000e+01 -6.590092e-01
    endloop
  endfacet
  facet normal -1.000000e+00 0.000000e+00 0.000000e+00
    outer loop
      vertex   -1.405345e+01 -1.000000e+01 -6.590092e-01
      vertex   -1.405345e+01 1.000000e+01 6.577476e-01
      vertex   -1.405345e+01 1.000000e+01 -6.590092e-01
    endloop
  endfacet
  facet normal -9.458172e-01 0.000000e+00 3.246995e-01
    outer loop
      vertex   -1.405345e+01 -1.000000e+01 -6.590092e-01
      vertex   -1.405345e+01 1.000000e+01 -6.590092e-01
      vertex   -1.448100e+01 -1.000000e+01 -1.904420e+00
    endloop
  endfacet
  facet normal -9.458172e-01 0.000000e+00 3.246995e-01
    outer loop
      vertex   -1.448100e+01 -1.000000e+01 -1.904420e+00
      vertex   -1.405345e+01 1.000000e+01 -6.590092e-01
      vertex   -1.448100e+01 1.000000e+01 -1.904420e+00
    endloop
  endfacet
  facet normal -7.891405e-01 0.000000e+00 6.142127e-01
    outer loop
      vertex   -1.448100e+01 -1.000000e+01 -1.904420e+00
      vertex   -1.448100e+01 1.000000e+01 -1.904420e+00
      vertex   -1.528977e+01 -1.000000e+01 -2.943526e+00
    endloop
  endfacet
  facet normal -7.891405e-01 -8.562647e-17 6.142127e-01
    outer loop
      vertex   -1.528977e+01 -1.000000e+01 -2.943526e+00
      vertex   -1.448100e+01 1.000000e+01 -1.904420e+00
      vertex   -1.528977e+01 1.000000e+01 -2.943526e+00
    endloop
  endfacet
  facet normal -5.469482e-01 -2.280219e-17 8.371665e-01
    outer loop
      vertex   -1.528977e+01 -1.000000e+01 -2.943526e+00
      vertex   -1.528977e+01 1.000000e+01 -2.943526e+00
      vertex   -1.639211e+01 -1.000000e+01 -3.663724e+00
    endloop
  endfacet
  facet normal -5.469482e-01 -5.997985e-17 8.371665e-01
    outer loop
      vertex   -1.639211e+01 -1.000000e+01 -3.663724e+00
      vertex   -1.528977e+01 1.000000e+01 -2.943526e+00
      vertex   -1.639211e+01 1.000000e+01 -3.663724e+00
    endloop
  endfacet
  facet normal -2.454855e-01 -5.569626e-19 9.694003e-01
    outer loop
      vertex   -1.639211e+01 -1.000000e+01 -3.663724e+00
      vertex   -1.639211e+01 1.000000e+01 -3.663724e+00
      vertex   -1.766858e+01 -1.000000e+01 -3.986969e+00
    endloop
  endfacet
  facet normal -2.454855e-01 0.000000e+00 9.694003e-01
    outer loop
      vertex   -1.766858e+01 -1.000000e+01 -3.986969e+00
      vertex   -1.639211e+01 1.000000e+01 -3.663724e+00
      vertex   -1.766858e+01 1.000000e+01 -3.986969e+00
    endloop
  endfacet
  facet normal 8.257935e-02 -0.000000e+00 9.965845e-01
    outer loop
      vertex   -1.766858e+01 -1.000000e+01 -3.986969e+00
      vertex   -1.766858e+01 1.000000e+01 -3.986969e+00
      vertex   -1.898084e+01 -1.000000e+01 -3.878232e+00
    endloop
  endfacet
  facet normal 8.257935e-02 -2.212862e-17 9.965845e-01
    outer loop
      vertex   -1.898084e+01 -1.000000e+01 -3.878232e+00
      vertex   -1.766858e+01 1.000000e+01 -3.986969e+00
      vertex   -1.898084e+01 1.000000e+01 -3.878232e+00
    endloop
  endfacet
  facet normal 4.016954e-01 -2.033425e-17 9.157733e-01
    outer loop
      vertex   -1.898084e+01 -1.000000e+01 -3.878232e+00
      vertex   -1.898084e+01 1.000000e+01 -3.878232e+00
      vertex   -2.018669e+01 -1.000000e+01 -3.349297e+00
    endloop
  endfacet
  facet normal 4.016954e-01 -0.000000e+00 9.157733e-01
    outer loop
      vertex   -2.018669e+01 -1.000000e+01 -3.349297e+00
      vertex   -1.898084e+01 1.000000e+01 -3.878232e+00
      vertex   -2.018669e+01 1.000000e+01 -3.349297e+00
    endloop
  endfacet
  facet normal 6.772816e-01 -0.000000e+00 7.357239e-01
    outer loop
      vertex   -2.018669e+01 -1.000000e+01 -3.349297e+00
      vertex   -2.018669e+01 1.000000e+01 -3.349297e+00
      vertex   -2.115546e+01 -1.000000e+01 -2.457482e+00
    endloop
  endfacet
  facet normal 6.772816e-01 -0.000000e+00 7.357239e-01
    outer loop
      vertex   -2.115546e+01 -1.000000e+01 -2.457482e+00
      vertex   -2.018669e+01 1.000000e+01 -3.349297e+00
      vertex   -2.115546e+01 1.000000e+01 -2.457482e+00
    endloop
  endfacet
  facet normal 8.794738e-01 -0.000000e+00 4.759474e-01
    outer loop
      vertex   -2.115546e+01 -1.000000e+01 -2.457482e+00
      vertex   -2.115546e+01 1.000000e+01 -2.457482e+00
      vertex   -2.178216e+01 -1.000000e+01 -1.299429e+00
    endloop
  endfacet
  facet normal 8.794738e-01 -0.000000e+00 4.759474e-01
    outer loop
      vertex   -2.178216e+01 -1.000000e+01 -1.299429e+00
      vertex   -2.115546e+01 1.000000e+01 -2.457482e+00
      vertex   -2.178216e+01 1.000000e+01 -1.299429e+00
    endloop
  endfacet
  facet normal 9.709418e-01 -1.062775e-17 2.393157e-01
    outer loop
      vertex   -3.948934e+01 -1.000000e+01 1.067524e+00
      vertex   -3.948934e+01 1.000000e+01 1.067524e+00
      vertex   -3.970652e+01 -1.000000e+01 1.948639e+00
    endloop
  endfacet
  facet normal 9.709418e-01 -0.000000e+00 2.393157e-01
    outer loop
      vertex   -3.970652e+01 -1.000000e+01 1.948639e+00
      vertex   -3.948934e+01 1.000000e+01 1.067524e+00
      vertex   -3.970652e+01 1.000000e+01 1.948639e+00
    endloop
  endfacet
  facet normal 9.709418e-01 0.000000e+00 -2.393157e-01
    outer loop
      vertex   -3.970652e+01 -1.000000e+01 1.948639e+00
      vertex   -3.970652e+01 1.000000e+01 1.948639e+00
      vertex   -3.948934e+01 -1.000000e+01 2.829755e+00
    endloop
  endfacet
  facet normal 9.709418e-01 5.313875e-18 -2.393157e-01
    outer loop
      vertex   -3.948934e+01 -1.000000e+01 2.829755e+00
      vertex   -3.970652e+01 1.000000e+01 1.948639e+00
      vertex   -3.948934e+01 1.000000e+01 2.829755e+00
    endloop
  endfacet
  facet normal 7.485107e-01 1.472428e-17 -6.631227e-01
    outer loop
      vertex   -3.948934e+01 -1.000000e+01 2.829755e+00
      vertex   -3.948934e+01 1.000000e+01 2.829755e+00
      vertex   -3.888757e+01 -1.000000e+01 3.509017e+00
    endloop
  endfacet
  facet normal 7.485107e-01 0.000000e+00 -6.631227e-01
    outer loop
      vertex   -3.888757e+01 -1.000000e+01 3.509017e+00
      vertex   -3.948934e+01 1.000000e+01 2.829755e+00
      vertex   -3.888757e+01 1.000000e+01 3.509017e+00
    endloop
  endfacet
  facet normal 3.546049e-01 0.000000e+00 -9.350162e-01
    outer loop
      vertex   -3.888757e+01 -1.000000e+01 3.509017e+00
      vertex   -3.888757e+01 1.000000e+01 3.509017e+00
      vertex   -3.803906e+01 -1.000000e+01 3.830816e+00
    endloop
  endfacet
  facet normal 3.546049e-01 0.000000e+00 -9.350162e-01
    outer loop
      vertex   -3.803906e+01 -1.000000e+01 3.830816e+00
      vertex   -3.888757e+01 1.000000e+01 3.509017e+00
      vertex   -3.803906e+01 1.000000e+01 3.830816e+00
    endloop
  endfacet
  facet normal -1.205367e-01 0.000000e+00 -9.927089e-01
    outer loop
      vertex   -3.803906e+01 -1.000000e+01 3.830816e+00
      vertex   -3.803906e+01 1.000000e+01 3.830816e+00
      vertex   -3.713819e+01 -1.000000e+01 3.721430e+00
    endloop
  endfacet
  facet normal -1.205367e-01 -2.204256e-17 -9.927089e-01
    outer loop
      vertex   -3.713819e+01 -1.000000e+01 3.721430e+00
      vertex   -3.803906e+01 1.000000e+01 3.830816e+00
      vertex   -3.713819e+01 1.000000e+01 3.721430e+00
    endloop
  endfacet
  facet normal -5.680647e-01 -1.827391e-17 -8.229839e-01
    outer loop
      vertex   -3.713819e+01 -1.000000e+01 3.721430e+00
      vertex   -3.713819e+01 1.000000e+01 3.721430e+00
      vertex   -3.639134e+01 -1.000000e+01 3.205920e+00
    endloop
  endfacet
  facet normal -5.680647e-01 -5.482174e-17 -8.229839e-01
    outer loop
      vertex   -3.639134e+01 -1.000000e+01 3.205920e+00
      vertex   -3.713819e+01 1.000000e+01 3.721430e+00
      vertex   -3.639134e+01 1.000000e+01 3.205920e+00
    endloop
  endfacet
  facet normal -8.854560e-01 -3.095678e-17 -4.647232e-01
    outer loop
      vertex   -3.639134e+01 -1.000000e+01 3.205920e+00
      vertex   -3.639134e+01 1.000000e+01 3.205920e+00
      vertex   -3.596961e+01 -1.000000e+01 2.402382e+00
    endloop
  endfacet
  facet normal -8.854560e-01 -2.063785e-17 -4.647232e-01
    outer loop
      vertex   -3.596961e+01 -1.000000e+01 2.402382e+00
      vertex   -3.639134e+01 1.000000e+01 3.205920e+00
      vertex   -3.596961e+01 1.000000e+01 2.402382e+00
    endloop
  endfacet
  facet normal -1.000000e+00 0.000000e+00 0.000000e+00
    outer loop
      vertex   -3.596961e+01 -1.000000e+01 2.402382e+00
      vertex   -3.596961e+01 1.000000e+01 2.402382e+00
      vertex   -3.596961e+01 -1.000000e+01 1.494897e+00
    endloop
  endfacet
  facet normal -1.000000e+00 0.000000e+00 0.000000e+00
    outer loop
      vertex   -3.596961e+01 -1.000000e+01 1.494897e+00
      vertex   -3.596961e+01 1.000000e+01 2.402382e+00
      vertex   -3.596961e+01 1.000000e+01 1.494897e+00
    endloop
  endfacet
  facet normal -8.854560e-01 2.063785e-17 4.647232e-01
    outer loop
      vertex   -3.596961e+01 -1.000000e+01 1.494897e+00
      vertex   -3.596961e+01 1.000000e+01 1.494897e+00
      vertex   -3.639134e+01 -1.000000e+01 6.913586e-01
    endloop
  endfacet
  facet normal -8.854560e-01 1.547839e-17 4.647232e-01
    outer loop
      vertex   -3.639134e+01 -1.000000e+01 6.913586e-01
      vertex   -3.596961e+01 1.000000e+01 1.494897e+00
      vertex   -3.639134e+01 1.000000e+01 6.913586e-01
    endloop
  endfacet
  facet normal -5.680647e-01 2.741087e-17 8.229839e-01
    outer loop
      vertex   -3.639134e+01 -1.000000e+01 6.913586e-01
      vertex   -3.639134e+01 1.000000e+01 6.913586e-01
      vertex   -3.713819e+01 -1.000000e+01 1.758483e-01
    endloop
  endfacet
  facet normal -5.680647e-01 1.142120e-17 8.229839e-01
    outer loop
      vertex   -3.713819e+01 -1.000000e+01 1.758483e-01
      vertex   -3.639134e+01 1.000000e+01 6.913586e-01
      vertex   -3.713819e+01 1.000000e+01 1.758483e-01
    endloop
  endfacet
  facet normal -1.205367e-01 1.377660e-17 9.927089e-01
    outer loop
      vertex   -3.713819e+01 -1.000000e+01 1.758483e-01
      vertex   -3.713819e+01 1.000000e+01 1.758483e-01
      vertex   -3.803906e+01 -1.000000e+01 6.646308e-02
    endloop
  endfacet
  facet normal -1.205367e-01 -1.377660e-17 9.927089e-01
    outer loop
      vertex   -3.803906e+01 -1.000000e+01 6.646308e-02
      vertex   -3.713819e+01 1.000000e+01 1.758483e-01
      vertex   -3.803906e+01 1.000000e+01 6.646308e-02
    endloop
  endfacet
  facet normal 3.546049e-01 -1.297596e-17 9.350162e-01
    outer loop
      vertex   -3.803906e+01 -1.000000e+01 6.646308e-02
      vertex   -3.803906e+01 1.000000e+01 6.646308e-02
      vertex   -3.888757e+01 -1.000000e+01 3.882617e-01
    endloop
  endfacet
  facet normal 3.546049e-01 -0.000000e+00 9.350162e-01
    outer loop
      vertex   -3.888757e+01 -1.000000e+01 3.882617e-01
      vertex   -3.803906e+01 1.000000e+01 6.646308e-02
      vertex   -3.888757e+01 1.000000e+01 3.882617e-01
    endloop
  endfacet
  facet normal 7.485107e-01 -0.000000e+00 6.631227e-01
    outer loop
      vertex   -3.888757e+01 -1.000000e+01 3.882617e-01
      vertex   -3.888757e+01 1.000000e+01 3.882617e-01
      vertex   -3.948934e+01 -1.000000e+01 1.067524e+00
    endloop
  endfacet
  facet normal 7.485107e-01 -2.944856e-17 6.631227e-01
    outer loop
      vertex   -3.948934e+01 -1.000000e+01 1.067524e+00
      vertex   -3.888757e+01 1.000000e+01 3.882617e-01
      vertex   -3.948934e+01 1.000000e+01 1.067524e+00
    endloop
  endfacet
  facet normal -2.188649e-02 0.000000e+00 9.997605e-01
    outer loop
      vertex   -9.099648e+00 1.000000e+01 9.115671e+00
      vertex   -1.924696e+01 1.000000e+01 8.893529e+00
      vertex   -9.099648e+00 -1.000000e+01 9.115671e+00
    endloop
  endfacet
  facet normal -2.188649e-02 0.000000e+00 9.997605e-01
    outer loop
      vertex   -9.099648e+00 -1.000000e+01 9.115671e+00
      vertex   -1.924696e+01 1.000000e+01 8.893529e+00
      vertex   -1.924696e+01 -1.000000e+01 8.893529e+00
    endloop
  endfacet
  facet normal 2.386709e-16 0.000000e+00 1.000000e+00
    outer loop
      vertex   -1.924696e+01 1.000000e+01 8.893529e+00
      vertex   -5.646047e+01 1.000000e+01 8.893529e+00
      vertex   -1.924696e+01 -1.000000e+01 8.893529e+00
    endloop
  endfacet
  facet normal 2.386709e-16 0.000000e+00 1.000000e+00
    outer loop
      vertex   -1.924696e+01 -1.000000e+01 8.893529e+00
      vertex   -5.646047e+01 1.000000e+01 8.893529e+00
      vertex   -5.646047e+01 -1.000000e+01 8.893529e+00
    endloop
  endfacet
  facet normal -1.000000e+00 -0.000000e+00 -0.000000e+00
    outer loop
      vertex   -5.646047e+01 1.000000e+01 8.893529e+00
      vertex   -5.646047e+01 1.000000e+01 -1.225559e+01
      vertex   -5.646047e+01 -1.000000e+01 8.893529e+00
    endloop
  endfacet
  facet normal -1.000000e+00 0.000000e+00 0.000000e+00
    outer loop
      vertex   -5.646047e+01 -1.000000e+01 8.893529e+00
      vertex   -5.646047e+01 1.000000e+01 -1.225559e+01
      vertex   -5.646047e+01 -1.000000e+01 -1.225559e+01
    endloop
  endfacet
  facet normal -9.887900e-01 -0.000000e+00 -1.493130e-01
    outer loop
      vertex   -5.646047e+01 1.000000e+01 -1.225559e+01
      vertex   -3.897391e+01 1.000000e+01 -1.280562e+02
      vertex   -5.646047e+01 -1.000000e+01 -1.225559e+01
    endloop
  endfacet
  facet normal -9.887900e-01 0.000000e+00 -1.493130e-01
    outer loop
      vertex   -5.646047e+01 -1.000000e+01 -1.225559e+01
      vertex   -3.897391e+01 1.000000e+01 -1.280562e+02
      vertex   -3.897391e+01 -1.000000e+01 -1.280562e+02
    endloop
  endfacet
  facet normal 0.000000e+00 0.000000e+00 -1.000000e+00
    outer loop
      vertex   -3.897391e+01 1.000000e+01 -1.280562e+02
      vertex   -3.690217e+01 1.000000e+01 -1.280562e+02
      vertex   -3.897391e+01 -1.000000e+01 -1.280562e+02
    endloop
  endfacet
  facet normal 0.000000e+00 0.000000e+00 -1.000000e+00
    outer loop
      vertex   -3.897391e+01 -1.000000e+01 -1.280562e+02
      vertex   -3.690217e+01 1.000000e+01 -1.280562e+02
      vertex   -3.690217e+01 -1.000000e+01 -1.280562e+02
    endloop
  endfacet
  facet normal 9.885958e-01 0.000000e+00 -1.505935e-01
    outer loop
      vertex   -3.690217e+01 1.000000e+01 -1.280562e+02
      vertex   -1.924696e+01 1.000000e+01 -1.215570e+01
      vertex   -3.690217e+01 -1.000000e+01 -1.280562e+02
    endloop
  endfacet
  facet normal 9.885958e-01 0.000000e+00 -1.505935e-01
    outer loop
      vertex   -3.690217e+01 -1.000000e+01 -1.280562e+02
      vertex   -1.924696e+01 1.000000e+01 -1.215570e+01
      vertex   -1.924696e+01 -1.000000e+01 -1.215570e+01
    endloop
  endfacet
  facet normal 5.708072e-01 0.000000e+00 -8.210842e-01
    outer loop
      vertex   -1.924696e+01 1.000000e+01 -1.215570e+01
      vertex   -9.099648e+00 1.000000e+01 -5.101419e+00
      vertex   -1.924696e+01 -1.000000e+01 -1.215570e+01
    endloop
  endfacet
  facet normal 5.708072e-01 0.000000e+00 -8.210842e-01
    outer loop
      vertex   -1.924696e+01 -1.000000e+01 -1.215570e+01
      vertex   -9.099648e+00 1.000000e+01 -5.101419e+00
      vertex   -9.099648e+00 -1.000000e+01 -5.101419e+00
    endloop
  endfacet
  facet normal 1.000000e+00 0.000000e+00 -3.248575e-15
    outer loop
      vertex   -9.099648e+00 1.000000e+01 -5.101419e+00
      vertex   -9.099648e+00 1.000000e+01 9.115671e+00
      vertex   -9.099648e+00 -1.000000e+01 -5.101419e+00
    endloop
  endfacet
  facet normal 1.000000e+00 0.000000e+00 -3.248575e-15
    outer loop
      vertex   -9.099648e+00 -1.000000e+01 -5.101419e+00
      vertex   -9.099648e+00 1.000000e+01 9.115671e+00
      vertex   -9.099648e+00 -1.000000e+01 9.115671e+00
    endloop
  endfacet
  facet normal 0.000000e+00 1.000000e+00 0.000000e+00
    outer loop
      vertex   -3.948934e+01 1.000000e+01 1.067524e+00
      vertex   -5.646047e+01 1.000000e+01 -1.225559e+01
      vertex   -3.970652e+01 1.000000e+01 1.948639e+00
    endloop
  endfacet
  facet normal 0.000000e+00 1.000000e+00 0.000000e+00
    outer loop
      vertex   -3.970652e+01 1.000000e+01 1.948639e+00
      vertex   -5.646047e+01 1.000000e+01 -1.225559e+01
      vertex   -5.646047e+01 1.000000e+01 8.893529e+00
    endloop
  endfacet
  facet normal 0.000000e+00 1.000000e+00 -0.000000e+00
    outer loop
      vertex   -3.970652e+01 1.000000e+01 1.948639e+00
      vertex   -5.646047e+01 1.000000e+01 8.893529e+00
      vertex   -3.948934e+01 1.000000e+01 2.829755e+00
    endloop
  endfacet
  facet normal 0.000000e+00 1.000000e+00 -0.000000e+00
    outer loop
      vertex   -3.948934e+01 1.000000e+01 2.829755e+00
      vertex   -5.646047e+01 1.000000e+01 8.893529e+00
      vertex   -3.888757e+01 1.000000e+01 3.509017e+00
    endloop
  endfacet
  facet normal 0.000000e+00 1.000000e+00 -0.000000e+00
    outer loop
      vertex   -3.888757e+01 1.000000e+01 3.509017e+00
      vertex   -5.646047e+01 1.000000e+01 8.893529e+00
      vertex   -3.803906e+01 1.000000e+01 3.830816e+00
    endloop
  endfacet
  facet normal 0.000000e+00 1.000000e+00 -0.000000e+00
    outer loop
      vertex   -3.803906e+01 1.000000e+01 3.830816e+00
      vertex   -5.646047e+01 1.000000e+01 8.893529e+00
      vertex   -1.924696e+01 1.000000e+01 8.893529e+00
    endloop
  endfacet
  facet normal -0.000000e+00 1.000000e+00 0.000000e+00
    outer loop
      vertex   -3.803906e+01 1.000000e+01 3.830816e+00
      vertex   -1.924696e+01 1.000000e+01 8.893529e+00
      vertex   -3.713819e+01 1.000000e+01 3.721430e+00
    endloop
  endfacet
  facet normal -0.000000e+00 1.000000e+00 0.000000e+00
    outer loop
      vertex   -3.713819e+01 1.000000e+01 3.721430e+00
      vertex   -1.924696e+01 1.000000e+01 8.893529e+00
      vertex   -3.639134e+01 1.000000e+01 3.205920e+00
    endloop
  endfacet
  facet normal -0.000000e+00 1.000000e+00 0.000000e+00
    outer loop
      vertex   -3.639134e+01 1.000000e+01 3.205920e+00
      vertex   -1.924696e+01 1.000000e+01 8.893529e+00
      vertex   -3.596961e+01 1.000000e+01 2.402382e+00
    endloop
  endfacet
  facet normal -0.000000e+00 1.000000e+00 0.000000e+00
    outer loop
      vertex   -3.596961e+01 1.000000e+01 2.402382e+00
      vertex   -1.924696e+01 1.000000e+01 8.893529e+00
      vertex   -2.178216e+01 1.000000e+01 1.298167e+00
    endloop
  endfacet
  facet normal 0.000000e+00 1.000000e+00 0.000000e+00
    outer loop
      vertex   -3.596961e+01 1.000000e+01 2.402382e+00
      vertex   -2.178216e+01 1.000000e+01 1.298167e+00
      vertex   -2.199890e+01 1.000000e+01 -6.307922e-04
    endloop
  endfacet
  facet normal 0.000000e+00 1.000000e+00 0.000000e+00
    outer loop
      vertex   -3.948934e+01 1.000000e+01 1.067524e+00
      vertex   -3.888757e+01 1.000000e+01 3.882617e-01
      vertex   -5.646047e+01 1.000000e+01 -1.225559e+01
    endloop
  endfacet
  facet normal -0.000000e+00 1.000000e+00 0.000000e+00
    outer loop
      vertex   -5.646047e+01 1.000000e+01 -1.225559e+01
      vertex   -3.888757e+01 1.000000e+01 3.882617e-01
      vertex   -3.897391e+01 1.000000e+01 -1.280562e+02
    endloop
  endfacet
  facet normal 0.000000e+00 1.000000e+00 0.000000e+00
    outer loop
      vertex   -3.897391e+01 1.000000e+01 -1.280562e+02
      vertex   -3.888757e+01 1.000000e+01 3.882617e-01
      vertex   -3.803906e+01 1.000000e+01 6.646308e-02
    endloop
  endfacet
  facet normal 0.000000e+00 1.000000e+00 0.000000e+00
    outer loop
      vertex   -3.897391e+01 1.000000e+01 -1.280562e+02
      vertex   -3.803906e+01 1.000000e+01 6.646308e-02
      vertex   -3.690217e+01 1.000000e+01 -1.280562e+02
    endloop
  endfacet
  facet normal 0.000000e+00 1.000000e+00 0.000000e+00
    outer loop
      vertex   -3.690217e+01 1.000000e+01 -1.280562e+02
      vertex   -3.803906e+01 1.000000e+01 6.646308e-02
      vertex   -3.713819e+01 1.000000e+01 1.758483e-01
    endloop
  endfacet
  facet normal 0.000000e+00 1.000000e+00 -0.000000e+00
    outer loop
      vertex   -3.690217e+01 1.000000e+01 -1.280562e+02
      vertex   -3.713819e+01 1.000000e+01 1.758483e-01
      vertex   -1.924696e+01 1.000000e+01 -1.215570e+01
    endloop
  endfacet
  facet normal 0.000000e+00 1.000000e+00 0.000000e+00
    outer loop
      vertex   -1.924696e+01 1.000000e+01 -1.215570e+01
      vertex   -3.713819e+01 1.000000e+01 1.758483e-01
      vertex   -3.639134e+01 1.000000e+01 6.913586e-01
    endloop
  endfacet
  facet normal 0.000000e+00 1.000000e+00 0.000000e+00
    outer loop
      vertex   -1.924696e+01 1.000000e+01 -1.215570e+01
      vertex   -3.639134e+01 1.000000e+01 6.913586e-01
      vertex   -3.596961e+01 1.000000e+01 1.494897e+00
    endloop
  endfacet
  facet normal 0.000000e+00 1.000000e+00 0.000000e+00
    outer loop
      vertex   -3.596961e+01 1.000000e+01 2.402382e+00
      vertex   -2.199890e+01 1.000000e+01 -6.307922e-04
      vertex   -3.596961e+01 1.000000e+01 1.494897e+00
    endloop
  endfacet
  facet normal 0.000000e+00 1.000000e+00 0.000000e+00
    outer loop
      vertex   -3.596961e+01 1.000000e+01 1.494897e+00
      vertex   -2.199890e+01 1.000000e+01 -6.307922e-04
      vertex   -2.178216e+01 1.000000e+01 -1.299429e+00
    endloop
  endfacet
  facet normal 0.000000e+00 1.000000e+00 0.000000e+00
    outer loop
      vertex   -3.596961e+01 1.000000e+01 1.494897e+00
      vertex   -2.178216e+01 1.000000e+01 -1.299429e+00
      vertex   -1.924696e+01 1.000000e+01 -1.215570e+01
    endloop
  endfacet
  facet normal 0.000000e+00 1.000000e+00 0.000000e+00
    outer loop
      vertex   -1.924696e+01 1.000000e+01 -1.215570e+01
      vertex   -2.178216e+01 1.000000e+01 -1.299429e+00
      vertex   -2.115546e+01 1.000000e+01 -2.457482e+00
    endloop
  endfacet
  facet normal 0.000000e+00 1.000000e+00 0.000000e+00
    outer loop
      vertex   -1.924696e+01 1.000000e+01 -1.215570e+01
      vertex   -2.115546e+01 1.000000e+01 -2.457482e+00
      vertex   -2.018669e+01 1.000000e+01 -3.349297e+00
    endloop
  endfacet
  facet normal 0.000000e+00 1.000000e+00 0.000000e+00
    outer loop
      vertex   -2.018669e+01 1.000000e+01 -3.349297e+00
      vertex   -1.898084e+01 1.000000e+01 -3.878232e+00
      vertex   -1.924696e+01 1.000000e+01 -1.215570e+01
    endloop
  endfacet
  facet normal 0.000000e+00 1.000000e+00 0.000000e+00
    outer loop
      vertex   -1.924696e+01 1.000000e+01 -1.215570e+01
      vertex   -1.898084e+01 1.000000e+01 -3.878232e+00
      vertex   -1.766858e+01 1.000000e+01 -3.986969e+00
    endloop
  endfacet
  facet normal 0.000000e+00 1.000000e+00 0.000000e+00
    outer loop
      vertex   -1.924696e+01 1.000000e+01 -1.215570e+01
      vertex   -1.766858e+01 1.000000e+01 -3.986969e+00
      vertex   -1.639211e+01 1.000000e+01 -3.663724e+00
    endloop
  endfacet
  facet normal -0.000000e+00 1.000000e+00 0.000000e+00
    outer loop
      vertex   -1.639211e+01 1.000000e+01 -3.663724e+00
      vertex   -1.528977e+01 1.000000e+01 -2.943526e+00
      vertex   -1.924696e+01 1.000000e+01 -1.215570e+01
    endloop
  endfacet
  facet normal 0.000000e+00 1.000000e+00 0.000000e+00
    outer loop
      vertex   -1.924696e+01 1.000000e+01 -1.215570e+01
      vertex   -1.528977e+01 1.000000e+01 -2.943526e+00
      vertex   -9.099648e+00 1.000000e+01 -5.101419e+00
    endloop
  endfacet
  facet normal 0.000000e+00 1.000000e+00 0.000000e+00
    outer loop
      vertex   -9.099648e+00 1.000000e+01 -5.101419e+00
      vertex   -1.528977e+01 1.000000e+01 -2.943526e+00
      vertex   -1.448100e+01 1.000000e+01 -1.904420e+00
    endloop
  endfacet
  facet normal 0.000000e+00 1.000000e+00 0.000000e+00
    outer loop
      vertex   -9.099648e+00 1.000000e+01 -5.101419e+00
      vertex   -1.448100e+01 1.000000e+01 -1.904420e+00
      vertex   -1.405345e+01 1.000000e+01 -6.590092e-01
    endloop
  endfacet
  facet normal -0.000000e+00 1.000000e+00 0.000000e+00
    outer loop
      vertex   -1.405345e+01 1.000000e+01 -6.590092e-01
      vertex   -1.405345e+01 1.000000e+01 6.577476e-01
      vertex   -9.099648e+00 1.000000e+01 -5.101419e+00
    endloop
  endfacet
  facet normal 0.000000e+00 1.000000e+00 -0.000000e+00
    outer loop
      vertex   -9.099648e+00 1.000000e+01 -5.101419e+00
      vertex   -1.405345e+01 1.000000e+01 6.577476e-01
      vertex   -9.099648e+00 1.000000e+01 9.115671e+00
    endloop
  endfacet
  facet normal 0.000000e+00 1.000000e+00 0.000000e+00
    outer loop
      vertex   -9.099648e+00 1.000000e+01 9.115671e+00
      vertex   -1.405345e+01 1.000000e+01 6.577476e-01
      vertex   -1.448100e+01 1.000000e+01 1.903159e+00
    endloop
  endfacet
  facet normal 0.000000e+00 1.000000e+00 0.000000e+00
    outer loop
      vertex   -9.099648e+00 1.000000e+01 9.115671e+00
      vertex   -1.448100e+01 1.000000e+01 1.903159e+00
      vertex   -1.528977e+01 1.000000e+01 2.942265e+00
    endloop
  endfacet
  facet normal 0.000000e+00 1.000000e+00 0.000000e+00
    outer loop
      vertex   -9.099648e+00 1.000000e+01 9.115671e+00
      vertex   -1.528977e+01 1.000000e+01 2.942265e+00
      vertex   -1.924696e+01 1.000000e+01 8.893529e+00
    endloop
  endfacet
  facet normal 0.000000e+00 1.000000e+00 0.000000e+00
    outer loop
      vertex   -1.924696e+01 1.000000e+01 8.893529e+00
      vertex   -1.528977e+01 1.000000e+01 2.942265e+00
      vertex   -1.639211e+01 1.000000e+01 3.662463e+00
    endloop
  endfacet
  facet normal 0.000000e+00 1.000000e+00 0.000000e+00
    outer loop
      vertex   -1.924696e+01 1.000000e+01 8.893529e+00
      vertex   -1.639211e+01 1.000000e+01 3.662463e+00
      vertex   -1.766858e+01 1.000000e+01 3.985707e+00
    endloop
  endfacet
  facet normal 0.000000e+00 1.000000e+00 0.000000e+00
    outer loop
      vertex   -1.766858e+01 1.000000e+01 3.985707e+00
      vertex   -1.898084e+01 1.000000e+01 3.876970e+00
      vertex   -1.924696e+01 1.000000e+01 8.893529e+00
    endloop
  endfacet
  facet normal 0.000000e+00 1.000000e+00 0.000000e+00
    outer loop
      vertex   -1.924696e+01 1.000000e+01 8.893529e+00
      vertex   -1.898084e+01 1.000000e+01 3.876970e+00
      vertex   -2.018669e+01 1.000000e+01 3.348035e+00
    endloop
  endfacet
  facet normal 0.000000e+00 1.000000e+00 0.000000e+00
    outer loop
      vertex   -1.924696e+01 1.000000e+01 8.893529e+00
      vertex   -2.018669e+01 1.000000e+01 3.348035e+00
      vertex   -2.115546e+01 1.000000e+01 2.456220e+00
    endloop
  endfacet
  facet normal 0.000000e+00 1.000000e+00 -0.000000e+00
    outer loop
      vertex   -2.115546e+01 1.000000e+01 2.456220e+00
      vertex   -2.178216e+01 1.000000e+01 1.298167e+00
      vertex   -1.924696e+01 1.000000e+01 8.893529e+00
    endloop
  endfacet
endsolid
