# WaveFront *.obj file (generated by Autodesk ATF)

mtllib 4d75fcee-e93e-44f3-9182-f856d0b10f8d.mtl

g Body1

v 750.000000 0.000000 -40.000000
v 750.000000 50.000000 -40.000000
v 750.000000 50.000000 -400.000000
v 750.000000 0.000000 -400.000000
v 800.000000 50.000000 -40.000000
v 800.000000 50.000000 -400.000000
v 800.000000 0.000000 -400.000000
v 50.000000 50.000000 -40.000000
v 50.000000 0.000000 -40.000000
v 50.000000 0.000000 -400.000000
v 50.000000 50.000000 -400.000000
v 0.000000 50.000000 -40.000000
v 0.000000 50.000000 -400.000000
v 0.000000 0.000000 -400.000000
v 750.000000 750.000000 -40.000000
v 750.000000 800.000000 -40.000000
v 750.000000 800.000000 -400.000000
v 750.000000 750.000000 -400.000000
v 800.000000 750.000000 -40.000000
v 800.000000 750.000000 -400.000000
v 800.000000 800.000000 -400.000000
v 50.000000 800.000000 -40.000000
v 50.000000 750.000000 -40.000000
v 50.000000 750.000000 -400.000000
v 50.000000 800.000000 -400.000000
v 0.000000 750.000000 -40.000000
v 0.000000 750.000000 -400.000000
v 0.000000 800.000000 -400.000000
v 0.000000 0.000000 0.000000
v -0.000000 800.000000 0.000000
v 800.000000 0.000000 0.000000
v 800.000000 800.000000 0.000000
vt -0.000000 4.000000 0.000000
vt 5.000000 4.000000 0.000000
vt -0.000000 40.000000 0.000000
vt 5.000000 40.000000 0.000000
vt 0.000000 4.000000 0.000000
vt 5.000000 4.000000 0.000000
vt 0.000000 40.000000 0.000000
vt 5.000000 40.000000 0.000000
vt 2.500000 2.500000 0.000000
vt -2.500000 2.500000 0.000000
vt 2.500000 -2.500000 0.000000
vt -2.500000 -2.500000 0.000000
vt 0.000000 4.000000 0.000000
vt 5.000000 4.000000 0.000000
vt 0.000000 40.000000 0.000000
vt 5.000000 40.000000 0.000000
vt 0.000000 4.000000 0.000000
vt 5.000000 4.000000 0.000000
vt 0.000000 40.000000 0.000000
vt 5.000000 40.000000 0.000000
vt 2.500000 2.500000 0.000000
vt -2.500000 2.500000 0.000000
vt 2.500000 -2.500000 0.000000
vt -2.500000 -2.500000 0.000000
vt 0.000000 4.000000 0.000000
vt 5.000000 4.000000 0.000000
vt 0.000000 40.000000 0.000000
vt 5.000000 40.000000 0.000000
vt 0.000000 4.000000 0.000000
vt 5.000000 4.000000 0.000000
vt 0.000000 40.000000 0.000000
vt 5.000000 40.000000 0.000000
vt -2.500000 -2.500000 0.000000
vt 2.500000 -2.500000 0.000000
vt -2.500000 2.500000 0.000000
vt 2.500000 2.500000 0.000000
vt -0.000000 4.000000 0.000000
vt 5.000000 4.000000 0.000000
vt 0.000000 40.000000 0.000000
vt 5.000000 40.000000 0.000000
vt 0.000000 4.000000 0.000000
vt 5.000000 4.000000 0.000000
vt 0.000000 40.000000 0.000000
vt 5.000000 40.000000 0.000000
vt -2.500000 -2.500000 0.000000
vt 2.500000 -2.500000 0.000000
vt -2.500000 2.500000 0.000000
vt 2.500000 2.500000 0.000000
vt -5.000000 40.000000 0.000000
vt -5.000000 0.000000 0.000000
vt -0.000000 4.000000 0.000000
vt 75.000000 0.000000 0.000000
vt 70.000000 4.000000 0.000000
vt 75.000000 40.000000 0.000000
vt 70.000000 40.000000 0.000000
vt -0.000000 40.000000 0.000000
vt -5.000000 40.000000 0.000000
vt -5.000000 0.000000 0.000000
vt 0.000000 4.000000 0.000000
vt 75.000000 -0.000000 0.000000
vt 70.000000 4.000000 0.000000
vt 75.000000 40.000000 0.000000
vt 70.000000 40.000000 0.000000
vt 0.000000 40.000000 0.000000
vt -5.000000 40.000000 0.000000
vt -5.000000 0.000000 0.000000
vt 0.000000 4.000000 0.000000
vt 75.000000 0.000000 0.000000
vt 70.000000 4.000000 0.000000
vt 75.000000 40.000000 0.000000
vt 70.000000 40.000000 0.000000
vt 0.000000 40.000000 0.000000
vt -5.000000 40.000000 0.000000
vt -5.000000 0.000000 0.000000
vt 0.000000 4.000000 0.000000
vt 75.000000 0.000000 0.000000
vt 70.000000 4.000000 0.000000
vt 75.000000 40.000000 0.000000
vt 70.000000 40.000000 0.000000
vt 0.000000 40.000000 0.000000
vt 40.000000 40.000000 0.000000
vt -40.000000 40.000000 0.000000
vt 40.000000 -40.000000 0.000000
vt -40.000000 -40.000000 0.000000
vt 35.000000 40.000000 0.000000
vt -35.000000 40.000000 0.000000
vt 35.000000 35.000000 0.000000
vt -35.000000 35.000000 0.000000
vt 35.000000 -35.000000 0.000000
vt -35.000000 -35.000000 0.000000
vt 35.000000 -40.000000 0.000000
vt -35.000000 -40.000000 0.000000
vt -40.000000 35.000000 0.000000
vt -40.000000 -35.000000 0.000000
vt 40.000000 -35.000000 0.000000
vt 40.000000 35.000000 0.000000
vn -0.100000 0.000000 0.000000
vn -0.100000 0.000000 0.000000
vn -0.100000 0.000000 0.000000
vn -0.100000 0.000000 0.000000
vn 0.000000 0.100000 0.000000
vn 0.000000 0.100000 0.000000
vn 0.000000 0.100000 0.000000
vn 0.000000 0.100000 0.000000
vn 0.000000 0.000000 -0.100000
vn 0.000000 0.000000 -0.100000
vn 0.000000 0.000000 -0.100000
vn 0.000000 0.000000 -0.100000
vn 0.100000 -0.000000 0.000000
vn 0.100000 -0.000000 0.000000
vn 0.100000 -0.000000 0.000000
vn 0.100000 -0.000000 0.000000
vn 0.000000 0.100000 0.000000
vn 0.000000 0.100000 0.000000
vn 0.000000 0.100000 0.000000
vn 0.000000 0.100000 0.000000
vn 0.000000 0.000000 -0.100000
vn 0.000000 0.000000 -0.100000
vn 0.000000 0.000000 -0.100000
vn 0.000000 0.000000 -0.100000
vn -0.100000 0.000000 0.000000
vn -0.100000 0.000000 0.000000
vn -0.100000 0.000000 0.000000
vn -0.100000 0.000000 0.000000
vn 0.000000 -0.100000 0.000000
vn 0.000000 -0.100000 0.000000
vn 0.000000 -0.100000 0.000000
vn 0.000000 -0.100000 0.000000
vn 0.000000 0.000000 -0.100000
vn 0.000000 0.000000 -0.100000
vn 0.000000 0.000000 -0.100000
vn 0.000000 0.000000 -0.100000
vn 0.100000 0.000000 0.000000
vn 0.100000 0.000000 0.000000
vn 0.100000 0.000000 0.000000
vn 0.100000 0.000000 0.000000
vn 0.000000 -0.100000 0.000000
vn 0.000000 -0.100000 0.000000
vn 0.000000 -0.100000 0.000000
vn 0.000000 -0.100000 0.000000
vn 0.000000 0.000000 -0.100000
vn 0.000000 0.000000 -0.100000
vn 0.000000 0.000000 -0.100000
vn 0.000000 0.000000 -0.100000
vn -0.100000 -0.000000 0.000000
vn -0.100000 -0.000000 0.000000
vn -0.100000 -0.000000 0.000000
vn -0.100000 -0.000000 0.000000
vn -0.100000 -0.000000 0.000000
vn -0.100000 -0.000000 0.000000
vn -0.100000 -0.000000 0.000000
vn -0.100000 -0.000000 0.000000
vn 0.000000 -0.100000 0.000000
vn 0.000000 -0.100000 0.000000
vn 0.000000 -0.100000 0.000000
vn 0.000000 -0.100000 0.000000
vn 0.000000 -0.100000 0.000000
vn 0.000000 -0.100000 0.000000
vn 0.000000 -0.100000 0.000000
vn 0.000000 -0.100000 0.000000
vn 0.100000 -0.000000 0.000000
vn 0.100000 -0.000000 0.000000
vn 0.100000 -0.000000 0.000000
vn 0.100000 -0.000000 0.000000
vn 0.100000 -0.000000 0.000000
vn 0.100000 -0.000000 0.000000
vn 0.100000 -0.000000 0.000000
vn 0.100000 -0.000000 0.000000
vn 0.000000 0.100000 0.000000
vn 0.000000 0.100000 0.000000
vn 0.000000 0.100000 0.000000
vn 0.000000 0.100000 0.000000
vn 0.000000 0.100000 0.000000
vn 0.000000 0.100000 0.000000
vn 0.000000 0.100000 0.000000
vn 0.000000 0.100000 0.000000
vn 0.000000 0.000000 0.100000
vn 0.000000 0.000000 0.100000
vn 0.000000 0.000000 0.100000
vn 0.000000 0.000000 0.100000
vn 0.000000 0.000000 -0.100000
vn 0.000000 0.000000 -0.100000
vn 0.000000 0.000000 -0.100000
vn 0.000000 0.000000 -0.100000
vn 0.000000 0.000000 -0.100000
vn 0.000000 0.000000 -0.100000
vn 0.000000 0.000000 -0.100000
vn 0.000000 0.000000 -0.100000
vn 0.000000 0.000000 -0.100000
vn 0.000000 0.000000 -0.100000
vn 0.000000 0.000000 -0.100000
vn 0.000000 0.000000 -0.100000
usemtl Cherry
f 1/1/1 2/2/2 4/3/3
f 4/3/3 2/2/2 3/4/4
f 2/5/5 5/6/6 3/7/7
f 3/7/7 5/6/6 6/8/8
f 3/9/9 6/10/10 4/11/11
f 4/11/11 6/10/10 7/12/12
f 8/13/13 9/14/14 11/15/15
f 11/15/15 9/14/14 10/16/16
f 12/17/17 8/18/18 13/19/19
f 13/19/19 8/18/18 11/20/20
f 13/21/21 11/22/22 14/23/23
f 14/23/23 11/22/22 10/24/24
f 15/25/25 16/26/26 18/27/27
f 18/27/27 16/26/26 17/28/28
f 19/29/29 15/30/30 20/31/31
f 20/31/31 15/30/30 18/32/32
f 20/33/33 18/34/34 21/35/35
f 21/35/35 18/34/34 17/36/36
f 22/37/37 23/38/38 25/39/39
f 25/39/39 23/38/38 24/40/40
f 23/41/41 26/42/42 24/43/43
f 24/43/43 26/42/42 27/44/44
f 24/45/45 27/46/46 25/47/47
f 25/47/47 27/46/46 28/48/48
f 14/49/49 29/50/50 12/51/51
f 12/51/51 29/50/50 30/52/52
f 12/51/51 30/52/52 26/53/53
f 26/53/53 30/52/52 28/54/54
f 26/53/53 28/54/54 27/55/55
f 12/51/51 13/56/56 14/49/49
f 7/57/57 31/58/58 1/59/59
f 1/59/59 31/58/58 29/60/60
f 1/59/59 29/60/60 9/61/61
f 9/61/61 29/60/60 14/62/62
f 9/61/61 14/62/62 10/63/63
f 1/59/59 4/64/64 7/57/57
f 21/65/65 32/66/66 19/67/67
f 19/67/67 32/66/66 31/68/68
f 19/67/67 31/68/68 5/69/69
f 5/69/69 31/68/68 7/70/70
f 5/69/69 7/70/70 6/71/71
f 19/67/67 20/72/72 21/65/65
f 28/73/73 30/74/74 22/75/75
f 22/75/75 30/74/74 32/76/76
f 22/75/75 32/76/76 16/77/77
f 16/77/77 32/76/76 21/78/78
f 16/77/77 21/78/78 17/79/79
f 22/75/75 25/80/80 28/73/73
f 32/81/81 30/82/82 31/83/83
f 31/83/83 30/82/82 29/84/84
f 22/85/85 16/86/86 23/87/87
f 23/87/87 16/86/86 15/88/88
f 23/87/87 15/88/88 8/89/89
f 8/89/89 15/88/88 2/90/90
f 8/89/89 2/90/90 9/91/91
f 9/91/91 2/90/90 1/92/92
f 15/88/88 19/93/93 2/90/90
f 2/90/90 19/93/93 5/94/94
f 8/89/89 12/95/95 23/87/87
f 23/87/87 12/95/95 26/96/96
# 32 vertices
# 96 texture params
# 96 normals
# 60 facets

# 1 groups
