# Blender 3.4.1
# www.blender.org
mtllib a.mtl
o Plane
v 0.500000 -0.500000 -0.000000
v 0.500000 0.500000 0.000000
v -0.500000 0.500000 0.000000
v -0.500000 -0.500000 -0.000000
v 0.500000 -0.500000 -0.001000
v 0.500000 0.500000 -0.001000
v -0.500000 0.500000 -0.001000
v -0.500000 -0.500000 -0.001000
vn -0.0000 -0.0000 1.0000
vn -0.0000 -0.0000 -1.0000
vn -0.0000 1.0000 -0.0000
vn 1.0000 -0.0000 -0.0000
vn -0.0000 -1.0000 -0.0000
vn -1.0000 -0.0000 -0.0000
vt 15.000000 0.000000
vt 15.000000 15.000000
vt 0.000000 15.000000
vt 0.000000 0.000000
vt 15.000000 0.000000
vt 15.000000 15.000000
vt 0.000000 15.000000
vt 0.000000 0.000000
s 0
usemtl Material.001
f 1/1/1 2/2/1 3/3/1
f 1/1/1 3/3/1 4/4/1
f 5/5/2 7/7/2 6/6/2
f 5/5/2 8/8/2 7/7/2
f 3/3/3 2/2/3 6/6/3 7/7/3
f 2/2/4 1/1/4 5/5/4 6/6/4
f 1/1/5 4/4/5 8/8/5 5/5/5
f 4/4/6 3/3/6 7/7/6 8/8/6
